<?xml version="1.0" encoding="UTF-8" standalone="no"?>
<svg width="100%" height="100%" viewBox="0 0 1000 2400" preserveAspectRatio="xMidYMid meet" xmlns="http://www.w3.org/2000/svg">
  <!-- 背景 -->
  <rect width="1000" height="2400" fill="#1A1A1A"/>
  
  <!-- 交易所类型配置界面 -->
  <g transform="translate(0,0)">
    <!-- 标题栏 -->
    <rect x="50" y="50" width="900" height="60" rx="10" fill="#232323" stroke="#F0B90B" stroke-width="2"/>
    <text x="410" y="85" font-family="Arial" font-size="20" font-weight="bold" fill="#F0B90B">API配置 - 交易所类型</text>
    
    <!-- 关闭按钮 -->
    <rect x="900" y="60" width="40" height="40" rx="5" fill="#333333" stroke="#FFFFFF" stroke-width="1"/>
    <text x="915" y="85" font-family="Arial" font-size="20" fill="#FFFFFF">×</text>
    
    <!-- 左侧面板 - API列表 -->
    <rect x="50" y="130" width="300" height="620" rx="10" fill="#232323" stroke="#F0B90B" stroke-width="2"/>
    <text x="150" y="160" font-family="Arial" font-size="16" font-weight="bold" fill="#F0B90B">API列表</text>
    
    <!-- 搜索框 -->
    <rect x="70" y="180" width="260" height="40" rx="5" fill="#333333" stroke="#FFFFFF" stroke-width="1"/>
    <text x="90" y="205" font-family="Arial" font-size="14" fill="#AAAAAA">搜索API...</text>
    <rect x="290" y="180" width="40" height="40" rx="5" fill="#333333" stroke="#FFFFFF" stroke-width="1"/>
    <text x="305" y="205" font-family="Arial" font-size="14" fill="#FFFFFF">🔍</text>
    
    <!-- 添加API按钮 -->
    <rect x="70" y="230" width="260" height="40" rx="5" fill="#333333" stroke="#F0B90B" stroke-width="1"/>
    <text x="150" y="255" font-family="Arial" font-size="14" fill="#FFFFFF">+ 添加API</text>
    
    <!-- API列表项 -->
    <rect x="70" y="290" width="260" height="50" rx="5" fill="#333333" stroke="#FFFFFF" stroke-width="1"/>
    <text x="100" y="320" font-family="Arial" font-size="14" fill="#FFFFFF">交易所/币安</text>
    <circle cx="270" cy="315" r="8" fill="#00FF00"/>
    <rect x="290" y="305" width="20" height="20" rx="3" fill="#333333" stroke="#FFFFFF" stroke-width="1"/>
    <text x="295" y="320" font-family="Arial" font-size="14" fill="#FFFFFF">✎</text>
    
    <!-- 右侧配置面板 -->
    <rect x="370" y="130" width="580" height="620" rx="10" fill="#232323" stroke="#F0B90B" stroke-width="2"/>
    <text x="600" y="160" font-family="Arial" font-size="16" font-weight="bold" fill="#F0B90B">API配置详情</text>
    
    <!-- 基础信息 -->
    <text x="400" y="200" font-family="Arial" font-size="14" fill="#FFFFFF">API名称:</text>
    <text x="470" y="200" font-family="Arial" font-size="14" fill="#FF0000">*</text>
    <rect x="480" y="180" width="440" height="40" rx="5" fill="#333333" stroke="#FFFFFF" stroke-width="1"/>
    <text x="490" y="205" font-family="Arial" font-size="14" fill="#AAAAAA">请输入API名称</text>
    
    <!-- 请求频率 -->
    <text x="400" y="260" font-family="Arial" font-size="14" fill="#FFFFFF">请求频率:</text>
    <text x="470" y="260" font-family="Arial" font-size="14" fill="#FF0000">*</text>
    <rect x="480" y="240" width="100" height="40" rx="5" fill="#333333" stroke="#FFFFFF" stroke-width="1"/>
    <text x="490" y="265" font-family="Arial" font-size="14" fill="#AAAAAA">数字</text>
    <!-- 时间单位下拉框 -->
    <rect x="590" y="240" width="100" height="40" rx="5" fill="#333333" stroke="#FFFFFF" stroke-width="1"/>
    <text x="600" y="265" font-family="Arial" font-size="14" fill="#FFFFFF">秒</text>
    <polygon points="670,260 680,250 680,270" fill="#FFFFFF" />
    
    <!-- API类型选择 -->
    <text x="400" y="320" font-family="Arial" font-size="14" fill="#FFFFFF">API类型:</text>
    <text x="470" y="320" font-family="Arial" font-size="14" fill="#FF0000">*</text>
    <rect x="480" y="300" width="200" height="40" rx="5" fill="#333333" stroke="#FFFFFF" stroke-width="1"/>
    <text x="490" y="325" font-family="Arial" font-size="14" fill="#FFFFFF">交易所</text>
    <polygon points="660,320 670,310 670,330" fill="#FFFFFF" />
    
    <!-- 本机IP显示 -->
    <text x="700" y="325" font-family="Arial" font-size="14" fill="#AAAAAA">本机IP: 192.168.1.100</text>
    
    <!-- 交易所特有配置 -->
    <text x="400" y="380" font-family="Arial" font-size="14" fill="#FFFFFF">API Key:</text>
    <text x="470" y="380" font-family="Arial" font-size="14" fill="#FF0000">*</text>
    <rect x="480" y="360" width="440" height="40" rx="5" fill="#333333" stroke="#FFFFFF" stroke-width="1"/>
    <text x="490" y="385" font-family="Arial" font-size="14" fill="#AAAAAA">请输入API Key</text>
    
    <text x="400" y="440" font-family="Arial" font-size="14" fill="#FFFFFF">API Secret:</text>
    <text x="480" y="440" font-family="Arial" font-size="14" fill="#FF0000">*</text>
    <rect x="480" y="420" width="440" height="40" rx="5" fill="#333333" stroke="#FFFFFF" stroke-width="1"/>
    <text x="490" y="445" font-family="Arial" font-size="14" fill="#AAAAAA">请输入API Secret</text>
    
    <!-- 获取返回按钮 -->
    <rect x="480" y="480" width="120" height="40" rx="5" fill="#333333" stroke="#F0B90B" stroke-width="1"/>
    <text x="500" y="505" font-family="Arial" font-size="14" fill="#FFFFFF">获取返回</text>
    
    <!-- 返回结果显示区域 -->
    <rect x="480" y="540" width="440" height="100" rx="5" fill="#333333" stroke="#FFFFFF" stroke-width="1"/>
    <text x="490" y="565" font-family="Arial" font-size="14" fill="#00FF00">✓ 连接成功</text>
    <text x="490" y="595" font-family="Arial" font-size="12" fill="#AAAAAA">上次测试时间: 2024-03-15 14:30:22</text>
    
    <!-- 底部按钮 -->
    <rect x="480" y="680" width="100" height="50" rx="5" fill="#333333" stroke="#F0B90B" stroke-width="2"/>
    <text x="510" y="710" font-family="Arial" font-size="14" fill="#FFFFFF">保存</text>
    
    <rect x="600" y="680" width="100" height="50" rx="5" fill="#333333" stroke="#FF6600" stroke-width="2"/>
    <text x="630" y="710" font-family="Arial" font-size="14" fill="#FFFFFF">删除</text>
  </g>
  
  <!-- HTTP类型配置界面 -->
  <g transform="translate(0,800)">
    <!-- 标题栏 -->
    <rect x="50" y="50" width="900" height="60" rx="10" fill="#232323" stroke="#F0B90B" stroke-width="2"/>
    <text x="410" y="85" font-family="Arial" font-size="20" font-weight="bold" fill="#F0B90B">API配置 - HTTP类型</text>
    
    <!-- 关闭按钮 -->
    <rect x="900" y="60" width="40" height="40" rx="5" fill="#333333" stroke="#FFFFFF" stroke-width="1"/>
    <text x="915" y="85" font-family="Arial" font-size="20" fill="#FFFFFF">×</text>
    
    <!-- 左侧面板 - API列表 -->
    <rect x="50" y="130" width="300" height="620" rx="10" fill="#232323" stroke="#F0B90B" stroke-width="2"/>
    <text x="150" y="160" font-family="Arial" font-size="16" font-weight="bold" fill="#F0B90B">API列表</text>
    
    <!-- 搜索框 -->
    <rect x="70" y="180" width="260" height="40" rx="5" fill="#333333" stroke="#FFFFFF" stroke-width="1"/>
    <text x="90" y="205" font-family="Arial" font-size="14" fill="#AAAAAA">搜索API...</text>
    <rect x="290" y="180" width="40" height="40" rx="5" fill="#333333" stroke="#FFFFFF" stroke-width="1"/>
    <text x="305" y="205" font-family="Arial" font-size="14" fill="#FFFFFF">🔍</text>
    
    <!-- 添加API按钮 -->
    <rect x="70" y="230" width="260" height="40" rx="5" fill="#333333" stroke="#F0B90B" stroke-width="1"/>
    <text x="150" y="255" font-family="Arial" font-size="14" fill="#FFFFFF">+ 添加API</text>
    
    <!-- API列表项 -->
    <rect x="70" y="290" width="260" height="50" rx="5" fill="#333333" stroke="#FFFFFF" stroke-width="1"/>
    <text x="100" y="320" font-family="Arial" font-size="14" fill="#FFFFFF">HTTP/GMGN</text>
    <circle cx="270" cy="315" r="8" fill="#00FF00"/>
    <rect x="290" y="305" width="20" height="20" rx="3" fill="#333333" stroke="#FFFFFF" stroke-width="1"/>
    <text x="295" y="320" font-family="Arial" font-size="14" fill="#FFFFFF">✎</text>
    
    <!-- 右侧配置面板 -->
    <rect x="370" y="130" width="580" height="620" rx="10" fill="#232323" stroke="#F0B90B" stroke-width="2"/>
    <text x="600" y="160" font-family="Arial" font-size="16" font-weight="bold" fill="#F0B90B">API配置详情</text>
    
    <!-- 基础信息 -->
    <text x="400" y="200" font-family="Arial" font-size="14" fill="#FFFFFF">API名称:</text>
    <text x="470" y="200" font-family="Arial" font-size="14" fill="#FF0000">*</text>
    <rect x="480" y="180" width="440" height="40" rx="5" fill="#333333" stroke="#FFFFFF" stroke-width="1"/>
    <text x="490" y="205" font-family="Arial" font-size="14" fill="#AAAAAA">请输入API名称</text>
    
    <!-- 请求频率 -->
    <text x="400" y="260" font-family="Arial" font-size="14" fill="#FFFFFF">请求频率:</text>
    <text x="470" y="260" font-family="Arial" font-size="14" fill="#FF0000">*</text>
    <rect x="480" y="240" width="100" height="40" rx="5" fill="#333333" stroke="#FFFFFF" stroke-width="1"/>
    <text x="490" y="265" font-family="Arial" font-size="14" fill="#AAAAAA">数字</text>
    <!-- 时间单位下拉框 -->
    <rect x="590" y="240" width="100" height="40" rx="5" fill="#333333" stroke="#FFFFFF" stroke-width="1"/>
    <text x="600" y="265" font-family="Arial" font-size="14" fill="#FFFFFF">秒</text>
    <polygon points="670,260 680,250 680,270" fill="#FFFFFF" />
    
    <!-- API类型选择 -->
    <text x="400" y="320" font-family="Arial" font-size="14" fill="#FFFFFF">API类型:</text>
    <text x="470" y="320" font-family="Arial" font-size="14" fill="#FF0000">*</text>
    <rect x="480" y="300" width="200" height="40" rx="5" fill="#333333" stroke="#FFFFFF" stroke-width="1"/>
    <text x="490" y="325" font-family="Arial" font-size="14" fill="#FFFFFF">HTTP</text>
    <polygon points="660,320 670,310 670,330" fill="#FFFFFF" />
    
    <!-- HTTP特有配置 -->
    <text x="400" y="380" font-family="Arial" font-size="14" fill="#FFFFFF">API URL:</text>
    <text x="470" y="380" font-family="Arial" font-size="14" fill="#FF0000">*</text>
    <rect x="480" y="360" width="440" height="40" rx="5" fill="#333333" stroke="#FFFFFF" stroke-width="1"/>
    <text x="490" y="385" font-family="Arial" font-size="12" fill="#AAAAAA">https://gmgn.ai/defi/quotation/v1/tokens/top_traders/sol/...</text>
    
    <text x="400" y="440" font-family="Arial" font-size="14" fill="#FFFFFF">Method:</text>
    <text x="470" y="440" font-family="Arial" font-size="14" fill="#FF0000">*</text>
    <rect x="480" y="420" width="120" height="40" rx="5" fill="#333333" stroke="#FFFFFF" stroke-width="1"/>
    <text x="490" y="445" font-family="Arial" font-size="14" fill="#FFFFFF">GET</text>
    <polygon points="580,440 590,430 590,450" fill="#FFFFFF" />
    
    <text x="400" y="500" font-family="Arial" font-size="14" fill="#FFFFFF">Payload:</text>
    <rect x="480" y="480" width="440" height="60" rx="5" fill="#333333" stroke="#FFFFFF" stroke-width="1"/>
    
    <!-- 获取返回按钮 -->
    <rect x="480" y="560" width="120" height="40" rx="5" fill="#333333" stroke="#F0B90B" stroke-width="1"/>
    <text x="500" y="585" font-family="Arial" font-size="14" fill="#FFFFFF">获取返回</text>
    
    <!-- 返回结果显示区域（动态高度） -->
    <rect x="480" y="620" width="440" height="40" rx="5" fill="#333333" stroke="#FFFFFF" stroke-width="1"/>
    <text x="490" y="645" font-family="Arial" font-size="14" fill="#FFFFFF">选择需要的字段:</text>
    
    <!-- 字段选择列表 -->
    <g transform="translate(490,670)">
      <!-- address字段 -->
      <rect x="0" y="0" width="16" height="16" rx="2" fill="#333333" stroke="#F0B90B" stroke-width="1"/>
      <text x="24" y="12" font-family="Arial" font-size="12" fill="#FFFFFF">address</text>
      <text x="16" y="12" font-family="Arial" font-size="12" fill="#F0B90B">✓</text>
      
      <!-- buy_price字段 -->
      <rect x="120" y="0" width="16" height="16" rx="2" fill="#333333" stroke="#F0B90B" stroke-width="1"/>
      <text x="144" y="12" font-family="Arial" font-size="12" fill="#FFFFFF">buy_price</text>
      <text x="136" y="12" font-family="Arial" font-size="12" fill="#F0B90B">✓</text>
      
      <!-- sell_price字段 -->
      <rect x="240" y="0" width="16" height="16" rx="2" fill="#333333" stroke="#F0B90B" stroke-width="1"/>
      <text x="264" y="12" font-family="Arial" font-size="12" fill="#FFFFFF">sell_price</text>
      <text x="256" y="12" font-family="Arial" font-size="12" fill="#F0B90B">✓</text>
      
      <!-- time_stamp字段 -->
      <rect x="360" y="0" width="16" height="16" rx="2" fill="#333333" stroke="#F0B90B" stroke-width="1"/>
      <text x="384" y="12" font-family="Arial" font-size="12" fill="#FFFFFF">time_stamp</text>
    </g>
    
    <!-- 底部按钮 -->
    <rect x="480" y="720" width="100" height="50" rx="5" fill="#333333" stroke="#F0B90B" stroke-width="2"/>
    <text x="510" y="750" font-family="Arial" font-size="14" fill="#FFFFFF">保存</text>
    
    <rect x="600" y="720" width="100" height="50" rx="5" fill="#333333" stroke="#FF6600" stroke-width="2"/>
    <text x="630" y="750" font-family="Arial" font-size="14" fill="#FFFFFF">删除</text>
  </g>
  
  <!-- 链上合约类型配置界面 -->
  <g transform="translate(0,1600)">
    <!-- 标题栏 -->
    <rect x="50" y="50" width="900" height="60" rx="10" fill="#232323" stroke="#F0B90B" stroke-width="2"/>
    <text x="410" y="85" font-family="Arial" font-size="20" font-weight="bold" fill="#F0B90B">API配置 - 链上合约类型</text>
    
    <!-- 关闭按钮 -->
    <rect x="900" y="60" width="40" height="40" rx="5" fill="#333333" stroke="#FFFFFF" stroke-width="1"/>
    <text x="915" y="85" font-family="Arial" font-size="20" fill="#FFFFFF">×</text>
    
    <!-- 左侧面板 - API列表 -->
    <rect x="50" y="130" width="300" height="620" rx="10" fill="#232323" stroke="#F0B90B" stroke-width="2"/>
    <text x="150" y="160" font-family="Arial" font-size="16" font-weight="bold" fill="#F0B90B">API列表</text>
    
    <!-- 搜索框 -->
    <rect x="70" y="180" width="260" height="40" rx="5" fill="#333333" stroke="#FFFFFF" stroke-width="1"/>
    <text x="90" y="205" font-family="Arial" font-size="14" fill="#AAAAAA">搜索API...</text>
    <rect x="290" y="180" width="40" height="40" rx="5" fill="#333333" stroke="#FFFFFF" stroke-width="1"/>
    <text x="305" y="205" font-family="Arial" font-size="14" fill="#FFFFFF">🔍</text>
    
    <!-- 添加API按钮 -->
    <rect x="70" y="230" width="260" height="40" rx="5" fill="#333333" stroke="#F0B90B" stroke-width="1"/>
    <text x="150" y="255" font-family="Arial" font-size="14" fill="#FFFFFF">+ 添加API</text>
    
    <!-- API列表项 -->
    <rect x="70" y="290" width="260" height="50" rx="5" fill="#333333" stroke="#FFFFFF" stroke-width="1"/>
    <text x="100" y="320" font-family="Arial" font-size="14" fill="#FFFFFF">链上合约/ETH_sENA</text>
    <circle cx="270" cy="315" r="8" fill="#00FF00"/>
    <rect x="290" y="305" width="20" height="20" rx="3" fill="#333333" stroke="#FFFFFF" stroke-width="1"/>
    <text x="295" y="320" font-family="Arial" font-size="14" fill="#FFFFFF">✎</text>
    
    <!-- 右侧配置面板 -->
    <rect x="370" y="130" width="580" height="620" rx="10" fill="#232323" stroke="#F0B90B" stroke-width="2"/>
    <text x="600" y="160" font-family="Arial" font-size="16" font-weight="bold" fill="#F0B90B">API配置详情</text>
    
    <!-- 基础信息 -->
    <text x="400" y="200" font-family="Arial" font-size="14" fill="#FFFFFF">API名称:</text>
    <text x="470" y="200" font-family="Arial" font-size="14" fill="#FF0000">*</text>
    <rect x="480" y="180" width="440" height="40" rx="5" fill="#333333" stroke="#FFFFFF" stroke-width="1"/>
    <text x="490" y="205" font-family="Arial" font-size="14" fill="#AAAAAA">请输入API名称</text>
    
    <!-- 请求频率 -->
    <text x="400" y="260" font-family="Arial" font-size="14" fill="#FFFFFF">请求频率:</text>
    <text x="470" y="260" font-family="Arial" font-size="14" fill="#FF0000">*</text>
    <rect x="480" y="240" width="100" height="40" rx="5" fill="#333333" stroke="#FFFFFF" stroke-width="1"/>
    <text x="490" y="265" font-family="Arial" font-size="14" fill="#AAAAAA">数字</text>
    <!-- 时间单位下拉框 -->
    <rect x="590" y="240" width="100" height="40" rx="5" fill="#333333" stroke="#FFFFFF" stroke-width="1"/>
    <text x="600" y="265" font-family="Arial" font-size="14" fill="#FFFFFF">秒</text>
    <polygon points="670,260 680,250 680,270" fill="#FFFFFF" />
    
    <!-- API类型选择 -->
    <text x="400" y="320" font-family="Arial" font-size="14" fill="#FFFFFF">API类型:</text>
    <text x="470" y="320" font-family="Arial" font-size="14" fill="#FF0000">*</text>
    <rect x="480" y="300" width="200" height="40" rx="5" fill="#333333" stroke="#FFFFFF" stroke-width="1"/>
    <text x="490" y="325" font-family="Arial" font-size="14" fill="#FFFFFF">链上合约</text>
    <polygon points="660,320 670,310 670,330" fill="#FFFFFF" />
    
    <!-- 链上合约特有配置 -->
    <text x="400" y="380" font-family="Arial" font-size="14" fill="#FFFFFF">选择链:</text>
    <text x="470" y="380" font-family="Arial" font-size="14" fill="#FF0000">*</text>
    <rect x="480" y="360" width="200" height="40" rx="5" fill="#333333" stroke="#FFFFFF" stroke-width="1"/>
    <text x="490" y="385" font-family="Arial" font-size="14" fill="#FFFFFF">以太坊</text>
    <polygon points="660,380 670,370 670,390" fill="#FFFFFF" />
    
    <text x="400" y="440" font-family="Arial" font-size="14" fill="#FFFFFF">合约:</text>
    <text x="480" y="440" font-family="Arial" font-size="14" fill="#FF0000">*</text>
    <rect x="480" y="420" width="440" height="40" rx="5" fill="#333333" stroke="#FFFFFF" stroke-width="1"/>
    <text x="490" y="445" font-family="Arial" font-size="14" fill="#AAAAAA">请输入合约名称</text>
    
    <text x="400" y="500" font-family="Arial" font-size="14" fill="#FFFFFF">函数名称:</text>
    <text x="480" y="500" font-family="Arial" font-size="14" fill="#FF0000">*</text>
    <rect x="480" y="480" width="440" height="40" rx="5" fill="#333333" stroke="#FFFFFF" stroke-width="1"/>
    <text x="490" y="505" font-family="Arial" font-size="14" fill="#AAAAAA">请输入函数名称</text>
    
    <text x="400" y="560" font-family="Arial" font-size="14" fill="#FFFFFF">参数:</text>
    <rect x="480" y="540" width="440" height="40" rx="5" fill="#333333" stroke="#FFFFFF" stroke-width="1"/>
    <text x="490" y="565" font-family="Arial" font-size="14" fill="#AAAAAA">自定义变量: $lastPrice(上次价格) $lastAmount(上次数量)</text>
    
    <!-- 获取返回按钮 -->
    <rect x="480" y="600" width="120" height="40" rx="5" fill="#333333" stroke="#F0B90B" stroke-width="1"/>
    <text x="500" y="625" font-family="Arial" font-size="14" fill="#FFFFFF">获取返回</text>
    
    <!-- 返回结果显示区域 -->
    <rect x="480" y="660" width="440" height="40" rx="5" fill="#333333" stroke="#FFFFFF" stroke-width="1"/>
    <text x="490" y="685" font-family="Arial" font-size="14" fill="#FFFFFF">选择需要的字段:</text>
    
    <!-- 字段选择列表 -->
    <g transform="translate(490,705)">
      <!-- 字段列表内容 -->
      <!-- address字段 -->
      <rect x="0" y="0" width="16" height="16" rx="2" fill="#333333" stroke="#F0B90B" stroke-width="1"/>
      <text x="24" y="12" font-family="Arial" font-size="12" fill="#FFFFFF">address</text>
      <text x="16" y="12" font-family="Arial" font-size="12" fill="#F0B90B">✓</text>
      
      <!-- buy_price字段 -->
      <rect x="120" y="0" width="16" height="16" rx="2" fill="#333333" stroke="#F0B90B" stroke-width="1"/>
      <text x="144" y="12" font-family="Arial" font-size="12" fill="#FFFFFF">buy_price</text>
      <text x="136" y="12" font-family="Arial" font-size="12" fill="#F0B90B">✓</text>
      
      <!-- sell_price字段 -->
      <rect x="240" y="0" width="16" height="16" rx="2" fill="#333333" stroke="#F0B90B" stroke-width="1"/>
      <text x="264" y="12" font-family="Arial" font-size="12" fill="#FFFFFF">sell_price</text>
      <text x="256" y="12" font-family="Arial" font-size="12" fill="#F0B90B">✓</text>
      
      <!-- time_stamp字段 -->
      <rect x="360" y="0" width="16" height="16" rx="2" fill="#333333" stroke="#F0B90B" stroke-width="1"/>
      <text x="384" y="12" font-family="Arial" font-size="12" fill="#FFFFFF">time_stamp</text>
    </g>
    
    <!-- 底部按钮 -->
    <rect x="480" y="740" width="100" height="50" rx="5" fill="#333333" stroke="#F0B90B" stroke-width="2"/>
    <text x="510" y="770" font-family="Arial" font-size="14" fill="#FFFFFF">保存</text>
    
    <rect x="600" y="740" width="100" height="50" rx="5" fill="#333333" stroke="#FF6600" stroke-width="2"/>
    <text x="630" y="770" font-family="Arial" font-size="14" fill="#FFFFFF">删除</text>
  </g>
</svg> 