<?xml version="1.0" encoding="UTF-8" standalone="no"?>
<svg width="100%" height="100%" viewBox="0 0 1000 800" preserveAspectRatio="xMidYMid meet" xmlns="http://www.w3.org/2000/svg">
  <!-- 背景 -->
  <rect width="1000" height="800" fill="#1A1A1A"/>
  
  <!-- 标题栏 -->
  <rect x="50" y="50" width="900" height="60" rx="10" fill="#232323" stroke="#F0B90B" stroke-width="2"/>
  <text x="410" y="85" font-family="Arial" font-size="20" font-weight="bold" fill="#F0B90B">Token配置</text>
  
  <!-- 关闭按钮 -->
  <rect x="900" y="60" width="40" height="40" rx="5" fill="#333333" stroke="#FFFFFF" stroke-width="1"/>
  <text x="915" y="85" font-family="Arial" font-size="20" fill="#FFFFFF">×</text>
  
  <!-- 左侧面板 - 导航 -->
  <rect x="50" y="130" width="300" height="620" rx="10" fill="#232323" stroke="#F0B90B" stroke-width="2"/>
  
  <!-- 导航项 - 基础配置 -->
  <rect x="70" y="150" width="260" height="40" rx="5" fill="#333333" stroke="#F0B90B" stroke-width="1"/>
  <text x="100" y="175" font-family="Arial" font-size="14" fill="#F0B90B">基础配置</text>
  <text x="290" y="175" font-family="Arial" font-size="14" fill="#F0B90B">▼</text>
  
  <!-- 基础配置子项 -->
  <rect x="90" y="200" width="240" height="30" rx="5" fill="#232323" stroke="#FFFFFF" stroke-width="1"/>
  <text x="120" y="220" font-family="Arial" font-size="12" fill="#FFFFFF">链配置</text>
  
  <rect x="90" y="240" width="240" height="30" rx="5" fill="#232323" stroke="#FFFFFF" stroke-width="1"/>
  <text x="120" y="260" font-family="Arial" font-size="12" fill="#FFFFFF">API配置</text>
  
  <rect x="90" y="280" width="240" height="30" rx="5" fill="#232323" stroke="#F0B90B" stroke-width="1"/>
  <text x="120" y="300" font-family="Arial" font-size="12" fill="#F0B90B">Token配置</text>
  
  <rect x="90" y="320" width="240" height="30" rx="5" fill="#232323" stroke="#FFFFFF" stroke-width="1"/>
  <text x="120" y="340" font-family="Arial" font-size="12" fill="#FFFFFF">交易对配置</text>
  
  <!-- 导航项 - Token列表 -->
  <rect x="70" y="370" width="260" height="40" rx="5" fill="#333333" stroke="#F0B90B" stroke-width="1"/>
  <text x="100" y="395" font-family="Arial" font-size="14" fill="#F0B90B">Token列表</text>
  <text x="290" y="395" font-family="Arial" font-size="14" fill="#F0B90B">▼</text>
  
  <!-- Token列表子项 -->
  <rect x="90" y="420" width="240" height="30" rx="5" fill="#232323" stroke="#FFFFFF" stroke-width="1"/>
  <text x="120" y="440" font-family="Arial" font-size="12" fill="#FFFFFF">BTC</text>
  
  <rect x="90" y="460" width="240" height="30" rx="5" fill="#232323" stroke="#FFFFFF" stroke-width="1"/>
  <text x="120" y="480" font-family="Arial" font-size="12" fill="#FFFFFF">ETH</text>
  
  <rect x="90" y="500" width="240" height="30" rx="5" fill="#232323" stroke="#F0B90B" stroke-width="1"/>
  <text x="120" y="520" font-family="Arial" font-size="12" fill="#F0B90B">USDT</text>
  
  <rect x="90" y="540" width="240" height="30" rx="5" fill="#232323" stroke="#FFFFFF" stroke-width="1"/>
  <text x="120" y="560" font-family="Arial" font-size="12" fill="#FFFFFF">USDC</text>
  
  <rect x="90" y="580" width="240" height="30" rx="5" fill="#232323" stroke="#FFFFFF" stroke-width="1"/>
  <text x="120" y="600" font-family="Arial" font-size="12" fill="#FFFFFF">sUSDe</text>
  
  <!-- 右侧配置面板 -->
  <rect x="370" y="130" width="580" height="620" rx="10" fill="#232323" stroke="#F0B90B" stroke-width="2"/>
  <text x="600" y="160" font-family="Arial" font-size="16" font-weight="bold" fill="#F0B90B">Token配置详情</text>
  
  <!-- 基础信息 -->
  <text x="400" y="200" font-family="Arial" font-size="14" fill="#FFFFFF">Token名称:</text>
  <text x="490" y="200" font-family="Arial" font-size="14" fill="#FF0000">*</text>
  <rect x="500" y="180" width="420" height="40" rx="5" fill="#333333" stroke="#FFFFFF" stroke-width="1"/>
  <text x="520" y="205" font-family="Arial" font-size="14" fill="#F0B90B">USDT</text>
  
  <!-- 链选择 -->
  <text x="400" y="260" font-family="Arial" font-size="14" fill="#FFFFFF">链:</text>
  <text x="430" y="260" font-family="Arial" font-size="14" fill="#FF0000">*</text>
  <rect x="500" y="240" width="200" height="40" rx="5" fill="#333333" stroke="#FFFFFF" stroke-width="1"/>
  <text x="520" y="265" font-family="Arial" font-size="14" fill="#FFFFFF">以太坊</text>
  <polygon points="680,260 690,250 690,270" fill="#FFFFFF" />
  
  <!-- RPC URL -->
  <text x="400" y="320" font-family="Arial" font-size="14" fill="#FFFFFF">RPC URL:</text>
  <text x="470" y="320" font-family="Arial" font-size="14" fill="#FF0000">*</text>
  <rect x="500" y="300" width="420" height="40" rx="5" fill="#333333" stroke="#FFFFFF" stroke-width="1"/>
  <text x="520" y="325" font-family="Arial" font-size="14" fill="#AAAAAA">https://mainnet.infura.io/v3/your-api-key</text>
  
  <!-- 合约地址 -->
  <text x="400" y="380" font-family="Arial" font-size="14" fill="#FFFFFF">合约地址:</text>
  <text x="480" y="380" font-family="Arial" font-size="14" fill="#FF0000">*</text>
  <rect x="500" y="360" width="350" height="40" rx="5" fill="#333333" stroke="#FFFFFF" stroke-width="1"/>
  <text x="520" y="385" font-family="Arial" font-size="14" fill="#AAAAAA">0xdAC17F958D2ee523a2206206994597C13D831ec7</text>
  
  <!-- 查询按钮 -->
  <rect x="860" y="360" width="60" height="40" rx="5" fill="#333333" stroke="#F0B90B" stroke-width="1"/>
  <text x="880" y="385" font-family="Arial" font-size="14" fill="#FFFFFF">查</text>
  
  <!-- 精度 -->
  <text x="400" y="440" font-family="Arial" font-size="14" fill="#FFFFFF">精度:</text>
  <rect x="500" y="420" width="200" height="40" rx="5" fill="#333333" stroke="#FFFFFF" stroke-width="1"/>
  <text x="520" y="445" font-family="Arial" font-size="14" fill="#FFFFFF">6</text>
  
  <!-- 符号 -->
  <text x="400" y="500" font-family="Arial" font-size="14" fill="#FFFFFF">符号:</text>
  <rect x="500" y="480" width="200" height="40" rx="5" fill="#333333" stroke="#FFFFFF" stroke-width="1"/>
  <text x="520" y="505" font-family="Arial" font-size="14" fill="#FFFFFF">USDT</text>
  
  <!-- 状态 -->
  <text x="400" y="560" font-family="Arial" font-size="14" fill="#FFFFFF">状态:</text>
  <rect x="500" y="540" width="200" height="40" rx="5" fill="#333333" stroke="#FFFFFF" stroke-width="1"/>
  <text x="520" y="565" font-family="Arial" font-size="14" fill="#00FF00">启用</text>
  <polygon points="680,560 690,550 690,570" fill="#FFFFFF" />
  
  <!-- 底部按钮 -->
  <!-- 保存按钮 -->
  <rect x="640" y="680" width="100" height="50" rx="5" fill="#333333" stroke="#F0B90B" stroke-width="2"/>
  <text x="670" y="710" font-family="Arial" font-size="14" fill="#FFFFFF">保存</text>
  
  <!-- 删除按钮 -->
  <rect x="760" y="680" width="100" height="50" rx="5" fill="#333333" stroke="#FF6600" stroke-width="2"/>
  <text x="790" y="710" font-family="Arial" font-size="14" fill="#FFFFFF">删除</text>
  
  <!-- 提示信息 -->
  <text x="400" y="620" font-family="Arial" font-size="12" fill="#AAAAAA">* 点击"查"按钮可自动获取Token名称、符号和精度信息</text>
</svg> 