<?xml version="1.0" encoding="UTF-8" standalone="no"?>
<svg width="100%" height="100%" viewBox="0 0 1920 1080" preserveAspectRatio="xMidYMid meet" xmlns="http://www.w3.org/2000/svg">
  <!-- 背景 -->
  <rect width="1920" height="1080" fill="#1A1A1A"/>
  
  <!-- 顶部导航栏 -->
  <rect x="0" y="0" width="1920" height="60" fill="#232323" stroke="#444444" stroke-width="1"/>
  <text x="30" y="38" font-family="Arial" font-size="24" font-weight="bold" fill="#F0B90B">多链价格监控系统</text>
  
  <!-- 顶部菜单 -->
  <text x="350" y="38" font-family="Arial" font-size="16" fill="#FFFFFF">首页</text>
  <text x="420" y="38" font-family="Arial" font-size="16" fill="#AAAAAA">配置</text>
  <text x="490" y="38" font-family="Arial" font-size="16" fill="#AAAAAA">历史数据</text>
  <text x="590" y="38" font-family="Arial" font-size="16" fill="#AAAAAA">告警记录</text>
  <text x="690" y="38" font-family="Arial" font-size="16" fill="#AAAAAA">系统设置</text>
  
  <!-- 用户菜单 -->
  <circle cx="1850" cy="30" r="20" fill="#333333" stroke="#F0B90B" stroke-width="2"/>
  <text x="1850" y="35" font-family="Arial" font-size="16" fill="#FFFFFF" text-anchor="middle">用户</text>
  
  <!-- 左侧策略面板 -->
  <rect x="0" y="60" width="250" height="1020" fill="#232323" stroke="#444444" stroke-width="1"/>
  <text x="20" y="90" font-family="Arial" font-size="18" font-weight="bold" fill="#FFFFFF">策略列表</text>
  
  <!-- 添加策略按钮 -->
  <rect x="180" y="75" width="50" height="25" rx="5" fill="#F0B90B"/>
  <text x="205" y="92" font-family="Arial" font-size="14" fill="#000000" text-anchor="middle">新增</text>
  
  <!-- 策略列表项 -->
  <rect x="10" y="105" width="230" height="50" rx="5" fill="#333333" stroke="#F0B90B" stroke-width="2"/>
  <text x="25" y="135" font-family="Arial" font-size="14" font-weight="bold" fill="#FFFFFF">ETH价格监控</text>
  <circle cx="220" cy="130" r="10" fill="#00AA00"/>
  
  <rect x="10" y="165" width="230" height="50" rx="5" fill="#333333"/>
  <text x="25" y="195" font-family="Arial" font-size="14" font-weight="bold" fill="#FFFFFF">ETH-BSC套利监控</text>
  <circle cx="220" cy="190" r="10" fill="#00AA00"/>
  
  <rect x="10" y="225" width="230" height="50" rx="5" fill="#333333"/>
  <text x="25" y="255" font-family="Arial" font-size="14" font-weight="bold" fill="#FFFFFF">sUSDe套利监控</text>
  <circle cx="220" cy="250" r="10" fill="#888888"/>

  <rect x="10" y="285" width="230" height="50" rx="5" fill="#333333"/>
  <text x="25" y="315" font-family="Arial" font-size="14" font-weight="bold" fill="#FFFFFF">Arbitrum-Base套利</text>
  <circle cx="220" cy="310" r="10" fill="#00AA00"/>
  
  <!-- 策略分类过滤器 -->
  <rect x="10" y="365" width="230" height="40" rx="5" fill="#2A2A2A"/>
  <text x="25" y="390" font-family="Arial" font-size="14" fill="#FFFFFF">策略类型筛选</text>
  
  <rect x="10" y="415" width="70" height="30" rx="15" fill="#F0B90B"/>
  <text x="45" y="435" font-family="Arial" font-size="12" fill="#000000" text-anchor="middle">全部</text>
  
  <rect x="90" y="415" width="70" height="30" rx="15" fill="#333333"/>
  <text x="125" y="435" font-family="Arial" font-size="12" fill="#FFFFFF" text-anchor="middle">价格</text>
  
  <rect x="170" y="415" width="70" height="30" rx="15" fill="#333333"/>
  <text x="205" y="435" font-family="Arial" font-size="12" fill="#FFFFFF" text-anchor="middle">多链</text>
  
  <rect x="10" y="455" width="150" height="30" rx="15" fill="#333333"/>
  <text x="85" y="475" font-family="Arial" font-size="12" fill="#FFFFFF" text-anchor="middle">多环节套利</text>
  
  <!-- 主内容区 - 选项卡 -->
  <rect x="250" y="60" width="1670" height="50" fill="#2A2A2A"/>
  <rect x="260" y="70" width="150" height="40" rx="5" fill="#F0B90B"/>
  <text x="335" y="95" font-family="Arial" font-size="14" font-weight="bold" fill="#000000" text-anchor="middle">监控仪表板</text>
  
  <rect x="420" y="70" width="150" height="40" rx="5" fill="#333333"/>
  <text x="495" y="95" font-family="Arial" font-size="14" fill="#FFFFFF" text-anchor="middle">数据分析</text>
  
  <rect x="580" y="70" width="150" height="40" rx="5" fill="#333333"/>
  <text x="655" y="95" font-family="Arial" font-size="14" fill="#FFFFFF" text-anchor="middle">套利机会</text>
  
  <rect x="740" y="70" width="150" height="40" rx="5" fill="#333333"/>
  <text x="815" y="95" font-family="Arial" font-size="14" fill="#FFFFFF" text-anchor="middle">告警中心</text>

  <!-- 三类监控区域标题栏 -->
  <rect x="250" y="110" width="1670" height="40" fill="#2D2D2D"/>
  <text x="270" y="135" font-family="Arial" font-size="16" font-weight="bold" fill="#F0B90B">监控仪表板</text>
  <text x="1800" y="135" font-family="Arial" font-size="14" fill="#AAAAAA" text-anchor="end">最后更新: 2023-07-15 14:30:22</text>
  
  <!-- 1. 价格监控区域 -->
  <rect x="260" y="160" width="550" height="400" rx="5" fill="#2A2A2A" stroke="#444444" stroke-width="1"/>
  <rect x="260" y="160" width="550" height="40" rx="5" fill="#333333"/>
  <text x="280" y="185" font-family="Arial" font-size="16" font-weight="bold" fill="#FFFFFF">价格监控</text>
  <text x="780" y="185" font-family="Arial" font-size="14" fill="#AAAAAA" text-anchor="end">单链价格告警</text>
  
  <!-- 价格监控表格 -->
  <rect x="270" y="210" width="530" height="30" fill="#333333"/>
  <text x="285" y="230" font-family="Arial" font-size="14" fill="#FFFFFF" font-weight="bold">币种</text>
  <text x="385" y="230" font-family="Arial" font-size="14" fill="#FFFFFF" font-weight="bold">链</text>
  <text x="485" y="230" font-family="Arial" font-size="14" fill="#FFFFFF" font-weight="bold">当前价格</text>
  <text x="600" y="230" font-family="Arial" font-size="14" fill="#FFFFFF" font-weight="bold">目标价格</text>
  <text x="700" y="230" font-family="Arial" font-size="14" fill="#FFFFFF" font-weight="bold">状态</text>
  
  <!-- 价格监控数据行 -->
  <rect x="270" y="240" width="530" height="40" fill="#2A2A2A"/>
  <text x="285" y="265" font-family="Arial" font-size="14" fill="#FFFFFF">ETH</text>
  <text x="385" y="265" font-family="Arial" font-size="14" fill="#FFFFFF">以太坊</text>
  <text x="485" y="265" font-family="Arial" font-size="14" fill="#00FF00">$3,521.45</text>
  <text x="600" y="265" font-family="Arial" font-size="14" fill="#FFFFFF">$3,600.00</text>
  <rect x="685" y="250" width="70" height="20" rx="10" fill="#333333"/>
  <text x="720" y="265" font-family="Arial" font-size="12" fill="#AAAAAA" text-anchor="middle">监控中</text>
  
  <rect x="270" y="280" width="530" height="40" fill="#2A2A2A"/>
  <text x="285" y="305" font-family="Arial" font-size="14" fill="#FFFFFF">BTC</text>
  <text x="385" y="305" font-family="Arial" font-size="14" fill="#FFFFFF">比特币</text>
  <text x="485" y="305" font-family="Arial" font-size="14" fill="#FF0000">$62,341.20</text>
  <text x="600" y="305" font-family="Arial" font-size="14" fill="#FFFFFF">$60,000.00</text>
  <rect x="685" y="290" width="70" height="20" rx="10" fill="#FF6600"/>
  <text x="720" y="305" font-family="Arial" font-size="12" fill="#FFFFFF" text-anchor="middle">已触发</text>
  
  <rect x="270" y="320" width="530" height="40" fill="#2A2A2A"/>
  <text x="285" y="345" font-family="Arial" font-size="14" fill="#FFFFFF">SOL</text>
  <text x="385" y="345" font-family="Arial" font-size="14" fill="#FFFFFF">Solana</text>
  <text x="485" y="345" font-family="Arial" font-size="14" fill="#00FF00">$142.85</text>
  <text x="600" y="345" font-family="Arial" font-size="14" fill="#FFFFFF">$150.00</text>
  <rect x="685" y="330" width="70" height="20" rx="10" fill="#333333"/>
  <text x="720" y="345" font-family="Arial" font-size="12" fill="#AAAAAA" text-anchor="middle">监控中</text>
  
  <!-- 价格趋势图 -->
  <rect x="270" y="370" width="530" height="180" fill="#333333" stroke="#444444" stroke-width="1"/>
  <text x="535" y="460" font-family="Arial" font-size="16" fill="#AAAAAA" text-anchor="middle">价格趋势图</text>
  <!-- 此处简化，实际应用中会是真实图表 -->
  <polyline points="280,500 320,480 360,490 400,470 440,450 480,460 520,420 560,410 600,430 640,400 680,390 720,370 760,380" 
    fill="none" stroke="#F0B90B" stroke-width="2"/>
  
  <!-- 2. 多链监控区域 -->
  <rect x="820" y="160" width="550" height="400" rx="5" fill="#2A2A2A" stroke="#444444" stroke-width="1"/>
  <rect x="820" y="160" width="550" height="40" rx="5" fill="#333333"/>
  <text x="840" y="185" font-family="Arial" font-size="16" font-weight="bold" fill="#FFFFFF">多链价格监控</text>
  <text x="1340" y="185" font-family="Arial" font-size="14" fill="#AAAAAA" text-anchor="end">跨链套利机会</text>
  
  <!-- 多链价格表格 -->
  <rect x="830" y="210" width="530" height="30" fill="#333333"/>
  <text x="845" y="230" font-family="Arial" font-size="14" fill="#FFFFFF" font-weight="bold">币种</text>
  <text x="925" y="230" font-family="Arial" font-size="14" fill="#FFFFFF" font-weight="bold">ETH链</text>
  <text x="1025" y="230" font-family="Arial" font-size="14" fill="#FFFFFF" font-weight="bold">BSC链</text>
  <text x="1125" y="230" font-family="Arial" font-size="14" fill="#FFFFFF" font-weight="bold">Arbitrum</text>
  <text x="1225" y="230" font-family="Arial" font-size="14" fill="#FFFFFF" font-weight="bold">Base</text>
  <text x="1325" y="230" font-family="Arial" font-size="14" fill="#FFFFFF" font-weight="bold">差异(%)</text>
  
  <!-- 多链监控数据行 -->
  <rect x="830" y="240" width="530" height="40" fill="#2A2A2A"/>
  <text x="845" y="265" font-family="Arial" font-size="14" fill="#FFFFFF">USDT</text>
  <text x="925" y="265" font-family="Arial" font-size="14" fill="#FFFFFF">$1.001</text>
  <text x="1025" y="265" font-family="Arial" font-size="14" fill="#FFFFFF">$0.998</text>
  <text x="1125" y="265" font-family="Arial" font-size="14" fill="#FFFFFF">$1.002</text>
  <text x="1225" y="265" font-family="Arial" font-size="14" fill="#FFFFFF">$0.997</text>
  <text x="1325" y="265" font-family="Arial" font-size="14" fill="#00FF00">0.5%</text>
  
  <rect x="830" y="280" width="530" height="40" fill="#2A2A2A"/>
  <text x="845" y="305" font-family="Arial" font-size="14" fill="#FFFFFF">ETH</text>
  <text x="925" y="305" font-family="Arial" font-size="14" fill="#FFFFFF">$3,521.45</text>
  <text x="1025" y="305" font-family="Arial" font-size="14" fill="#FFFFFF">$3,529.80</text>
  <text x="1125" y="305" font-family="Arial" font-size="14" fill="#FFFFFF">$3,520.12</text>
  <text x="1225" y="305" font-family="Arial" font-size="14" fill="#FFFFFF">$3,518.33</text>
  <text x="1325" y="305" font-family="Arial" font-size="14" fill="#FF8800">0.32%</text>
  
  <rect x="830" y="320" width="530" height="40" fill="#2A2A2A"/>
  <text x="845" y="345" font-family="Arial" font-size="14" fill="#FFFFFF">LINK</text>
  <text x="925" y="345" font-family="Arial" font-size="14" fill="#FFFFFF">$18.42</text>
  <text x="1025" y="345" font-family="Arial" font-size="14" fill="#FFFFFF">$18.55</text>
  <text x="1125" y="345" font-family="Arial" font-size="14" fill="#FFFFFF">$18.38</text>
  <text x="1225" y="345" font-family="Arial" font-size="14" fill="#FFFFFF">$18.61</text>
  <text x="1325" y="345" font-family="Arial" font-size="14" fill="#FF0000">1.25%</text>
  
  <!-- 多链价差热图 -->
  <rect x="830" y="370" width="530" height="180" fill="#333333" stroke="#444444" stroke-width="1"/>
  <text x="1095" y="460" font-family="Arial" font-size="16" fill="#AAAAAA" text-anchor="middle">多链价差热图</text>
  <!-- 此处简化，实际应用中会是真实热图 -->
  <rect x="880" y="400" width="40" height="40" fill="#00AA00" opacity="0.7"/>
  <rect x="920" y="400" width="40" height="40" fill="#F0B90B" opacity="0.7"/>
  <rect x="960" y="400" width="40" height="40" fill="#FF8800" opacity="0.7"/>
  <rect x="880" y="440" width="40" height="40" fill="#AAAAAA" opacity="0.7"/>
  <rect x="920" y="440" width="40" height="40" fill="#00AA00" opacity="0.7"/>
  <rect x="960" y="440" width="40" height="40" fill="#FF0000" opacity="0.7"/>
  
  <!-- 3. 多环节套利监控区域 - 修改为表格形式 -->
  <rect x="1380" y="160" width="530" height="400" rx="5" fill="#2A2A2A" stroke="#444444" stroke-width="1"/>
  <rect x="1380" y="160" width="530" height="40" rx="5" fill="#333333"/>
  <text x="1400" y="185" font-family="Arial" font-size="16" font-weight="bold" fill="#FFFFFF">多环节套利监控</text>
  <text x="1880" y="185" font-family="Arial" font-size="14" fill="#AAAAAA" text-anchor="end">复杂套利流程</text>
  
  <!-- 多环节套利表格 -->
  <rect x="1390" y="210" width="510" height="30" fill="#333333"/>
  <text x="1410" y="230" font-family="Arial" font-size="14" fill="#FFFFFF" font-weight="bold">时间（北京）</text>
  <text x="1530" y="230" font-family="Arial" font-size="14" fill="#FFFFFF" font-weight="bold">规则名称</text>
  <text x="1650" y="230" font-family="Arial" font-size="14" fill="#FFFFFF" font-weight="bold">APY</text>
  <text x="1750" y="230" font-family="Arial" font-size="14" fill="#FFFFFF" font-weight="bold">状态</text>
  <text x="1850" y="230" font-family="Arial" font-size="14" fill="#FFFFFF" font-weight="bold">操作</text>
  
  <!-- 多环节套利数据行 -->
  <rect x="1390" y="240" width="510" height="40" fill="#2A2A2A"/>
  <text x="1410" y="265" font-family="Arial" font-size="14" fill="#FFFFFF">2023-07-15 14:28</text>
  <text x="1530" y="265" font-family="Arial" font-size="14" fill="#FFFFFF">sUSDe套利</text>
  <text x="1650" y="265" font-family="Arial" font-size="14" fill="#00FF00">30%</text>
  <rect x="1735" y="250" width="70" height="20" rx="10" fill="#FF6600"/>
  <text x="1770" y="265" font-family="Arial" font-size="12" fill="#FFFFFF" text-anchor="middle">已触发</text>
  <rect x="1830" y="250" width="50" height="20" rx="3" fill="#F0B90B"/>
  <text x="1855" y="265" font-family="Arial" font-size="12" fill="#000000" text-anchor="middle">详情</text>
  
  <rect x="1390" y="280" width="510" height="40" fill="#2A2A2A"/>
  <text x="1410" y="305" font-family="Arial" font-size="14" fill="#FFFFFF">2023-07-15 14:15</text>
  <text x="1530" y="305" font-family="Arial" font-size="14" fill="#FFFFFF">USDe-USDC套利</text>
  <text x="1650" y="305" font-family="Arial" font-size="14" fill="#00FF00">15.2%</text>
  <rect x="1735" y="290" width="70" height="20" rx="10" fill="#333333"/>
  <text x="1770" y="305" font-family="Arial" font-size="12" fill="#AAAAAA" text-anchor="middle">监控中</text>
  <rect x="1830" y="290" width="50" height="20" rx="3" fill="#F0B90B"/>
  <text x="1855" y="305" font-family="Arial" font-size="12" fill="#000000" text-anchor="middle">详情</text>
  
  <rect x="1390" y="320" width="510" height="40" fill="#2A2A2A"/>
  <text x="1410" y="345" font-family="Arial" font-size="14" fill="#FFFFFF">2023-07-15 14:05</text>
  <text x="1530" y="345" font-family="Arial" font-size="14" fill="#FFFFFF">wstETH-ETH套利</text>
  <text x="1650" y="345" font-family="Arial" font-size="14" fill="#00FF00">8.5%</text>
  <rect x="1735" y="330" width="70" height="20" rx="10" fill="#333333"/>
  <text x="1770" y="345" font-family="Arial" font-size="12" fill="#AAAAAA" text-anchor="middle">监控中</text>
  <rect x="1830" y="330" width="50" height="20" rx="3" fill="#F0B90B"/>
  <text x="1855" y="345" font-family="Arial" font-size="12" fill="#000000" text-anchor="middle">详情</text>
  
  <rect x="1390" y="360" width="510" height="40" fill="#2A2A2A"/>
  <text x="1410" y="385" font-family="Arial" font-size="14" fill="#FFFFFF">2023-07-15 13:58</text>
  <text x="1530" y="385" font-family="Arial" font-size="14" fill="#FFFFFF">rETH-ETH套利</text>
  <text x="1650" y="385" font-family="Arial" font-size="14" fill="#00FF00">6.3%</text>
  <rect x="1735" y="370" width="70" height="20" rx="10" fill="#333333"/>
  <text x="1770" y="385" font-family="Arial" font-size="12" fill="#AAAAAA" text-anchor="middle">监控中</text>
  <rect x="1830" y="370" width="50" height="20" rx="3" fill="#F0B90B"/>
  <text x="1855" y="385" font-family="Arial" font-size="12" fill="#000000" text-anchor="middle">详情</text>
  
  <rect x="1390" y="400" width="510" height="40" fill="#2A2A2A"/>
  <text x="1410" y="425" font-family="Arial" font-size="14" fill="#FFFFFF">2023-07-15 13:45</text>
  <text x="1530" y="425" font-family="Arial" font-size="14" fill="#FFFFFF">FRAX-USDC套利</text>
  <text x="1650" y="425" font-family="Arial" font-size="14" fill="#00FF00">12.7%</text>
  <rect x="1735" y="410" width="70" height="20" rx="10" fill="#333333"/>
  <text x="1770" y="425" font-family="Arial" font-size="12" fill="#AAAAAA" text-anchor="middle">监控中</text>
  <rect x="1830" y="410" width="50" height="20" rx="3" fill="#F0B90B"/>
  <text x="1855" y="425" font-family="Arial" font-size="12" fill="#000000" text-anchor="middle">详情</text>
  
  <!-- 添加信息按钮 -->
  <circle cx="1410" y="475" r="15" fill="#333333" stroke="#FFFFFF" stroke-width="1"/>
  <text x="1410" y="480" font-family="Arial" font-size="18" font-weight="bold" fill="#FFFFFF" text-anchor="middle">i</text>
  <text x="1440" y="480" font-family="Arial" font-size="14" fill="#AAAAAA">点击"详情"可查看套利完整流程和计算过程</text>
  
  <rect x="1390" y="500" width="510" height="50" fill="#333333" stroke="#444444" stroke-width="1"/>
  <rect x="1400" y="510" width="20" height="20" fill="#FF6600" rx="3"/>
  <text x="1430" y="525" font-family="Arial" font-size="14" fill="#FFFFFF">已触发: 1</text>
  <rect x="1500" y="510" width="20" height="20" fill="#333333" stroke="#AAAAAA" stroke-width="1" rx="3"/>
  <text x="1530" y="525" font-family="Arial" font-size="14" fill="#FFFFFF">监控中: 4</text>
  <text x="1700" y="525" font-family="Arial" font-size="14" fill="#FFFFFF">平均APY: 14.54%</text>
  
  <!-- 分割线 -->
  <line x1="250" y1="570" x2="1920" y2="570" stroke="#444444" stroke-width="1"/>
  
  <!-- 底部区域标题 - 套利机会汇总 -->
  <rect x="250" y="570" width="1670" height="40" fill="#2D2D2D"/>
  <text x="270" y="595" font-family="Arial" font-size="16" font-weight="bold" fill="#F0B90B">套利机会汇总</text>
  <text x="1880" y="595" font-family="Arial" font-size="14" fill="#AAAAAA" text-anchor="end">发现 3 个套利机会</text>
  
  <!-- 套利机会表格 -->
  <rect x="260" y="620" width="1650" height="40" fill="#333333"/>
  <text x="280" y="645" font-family="Arial" font-size="14" fill="#FFFFFF" font-weight="bold">套利类型</text>
  <text x="450" y="645" font-family="Arial" font-size="14" fill="#FFFFFF" font-weight="bold">资产</text>
  <text x="600" y="645" font-family="Arial" font-size="14" fill="#FFFFFF" font-weight="bold">套利路径</text>
  <text x="900" y="645" font-family="Arial" font-size="14" fill="#FFFFFF" font-weight="bold">预期收益率</text>
  <text x="1050" y="645" font-family="Arial" font-size="14" fill="#FFFFFF" font-weight="bold">所需资金</text>
  <text x="1200" y="645" font-family="Arial" font-size="14" fill="#FFFFFF" font-weight="bold">风险评级</text>
  <text x="1350" y="645" font-family="Arial" font-size="14" fill="#FFFFFF" font-weight="bold">发现时间</text>
  <text x="1550" y="645" font-family="Arial" font-size="14" fill="#FFFFFF" font-weight="bold">状态</text>
  <text x="1700" y="645" font-family="Arial" font-size="14" fill="#FFFFFF" font-weight="bold">操作</text>
  
  <!-- 套利机会数据行 -->
  <rect x="260" y="660" width="1650" height="50" fill="#2A2A2A"/>
  <text x="280" y="690" font-family="Arial" font-size="14" fill="#FFFFFF">多环节套利</text>
  <text x="450" y="690" font-family="Arial" font-size="14" fill="#FFFFFF">sUSDe</text>
  <text x="600" y="690" font-family="Arial" font-size="14" fill="#FFFFFF">USDC→sUSDe→USDe→USDC</text>
  <text x="900" y="690" font-family="Arial" font-size="14" fill="#00FF00">+3.32%</text>
  <text x="1050" y="690" font-family="Arial" font-size="14" fill="#FFFFFF">≥ 1000 USDC</text>
  <text x="1200" y="690" font-family="Arial" font-size="14" fill="#FFAA00">中</text>
  <text x="1350" y="690" font-family="Arial" font-size="14" fill="#AAAAAA">14:28:32</text>
  <rect x="1535" y="675" width="70" height="20" rx="10" fill="#00AA00"/>
  <text x="1570" y="690" font-family="Arial" font-size="12" fill="#FFFFFF" text-anchor="middle">新发现</text>
  <rect x="1680" y="675" width="90" height="20" rx="3" fill="#F0B90B"/>
  <text x="1725" y="690" font-family="Arial" font-size="12" fill="#000000" text-anchor="middle">查看详情</text>
  
  <rect x="260" y="710" width="1650" height="50" fill="#2A2A2A"/>
  <text x="280" y="740" font-family="Arial" font-size="14" fill="#FFFFFF">多链套利</text>
  <text x="450" y="740" font-family="Arial" font-size="14" fill="#FFFFFF">LINK</text>
  <text x="600" y="740" font-family="Arial" font-size="14" fill="#FFFFFF">Base → Arbitrum</text>
  <text x="900" y="740" font-family="Arial" font-size="14" fill="#00FF00">+1.25%</text>
  <text x="1050" y="740" font-family="Arial" font-size="14" fill="#FFFFFF">≥ 500 LINK</text>
  <text x="1200" y="740" font-family="Arial" font-size="14" fill="#00AA00">低</text>
  <text x="1350" y="740" font-family="Arial" font-size="14" fill="#AAAAAA">14:25:11</text>
  <rect x="1535" y="725" width="70" height="20" rx="10" fill="#00AA00"/>
  <text x="1570" y="740" font-family="Arial" font-size="12" fill="#FFFFFF" text-anchor="middle">新发现</text>
  <rect x="1680" y="725" width="90" height="20" rx="3" fill="#F0B90B"/>
  <text x="1725" y="740" font-family="Arial" font-size="12" fill="#000000" text-anchor="middle">查看详情</text>
  
  <rect x="260" y="760" width="1650" height="50" fill="#2A2A2A"/>
  <text x="280" y="790" font-family="Arial" font-size="14" fill="#FFFFFF">价格触发</text>
  <text x="450" y="790" font-family="Arial" font-size="14" fill="#FFFFFF">BTC</text>
  <text x="600" y="790" font-family="Arial" font-size="14" fill="#FFFFFF">BTC价格 > $60,000</text>
  <text x="900" y="790" font-family="Arial" font-size="14" fill="#FFFFFF">N/A</text>
  <text x="1050" y="790" font-family="Arial" font-size="14" fill="#FFFFFF">N/A</text>
  <text x="1200" y="790" font-family="Arial" font-size="14" fill="#FFFFFF">N/A</text>
  <text x="1350" y="790" font-family="Arial" font-size="14" fill="#AAAAAA">14:20:05</text>
  <rect x="1535" y="775" width="70" height="20" rx="10" fill="#AAAAAA"/>
  <text x="1570" y="790" font-family="Arial" font-size="12" fill="#FFFFFF" text-anchor="middle">已通知</text>
  <rect x="1680" y="775" width="90" height="20" rx="3" fill="#444444"/>
  <text x="1725" y="790" font-family="Arial" font-size="12" fill="#FFFFFF" text-anchor="middle">已处理</text>
  
  <!-- 底部状态栏 -->
  <rect x="0" y="1040" width="1920" height="40" fill="#232323" stroke="#444444" stroke-width="1"/>
  <text x="20" y="1065" font-family="Arial" font-size="14" fill="#AAAAAA">系统状态: 正常运行</text>
  <text x="300" y="1065" font-family="Arial" font-size="14" fill="#AAAAAA">活跃策略: 8/10</text>
  <text x="500" y="1065" font-family="Arial" font-size="14" fill="#AAAAAA">今日告警: 12</text>
  <text x="700" y="1065" font-family="Arial" font-size="14" fill="#AAAAAA">运行时长: 24天12小时</text>
  
  <!-- 右下角版本信息 -->
  <text x="1900" y="1065" font-family="Arial" font-size="12" fill="#AAAAAA" text-anchor="end">v1.0.0</text>
</svg> 