<?xml version="1.0" encoding="UTF-8" standalone="no"?>
<svg width="100%" height="100%" viewBox="0 0 1000 800" preserveAspectRatio="xMidYMid meet" xmlns="http://www.w3.org/2000/svg">
  <!-- 背景 -->
  <rect width="1000" height="800" fill="#1A1A1A"/>
  
  <!-- 标题栏 -->
  <rect x="50" y="50" width="900" height="60" rx="10" fill="#232323" stroke="#F0B90B" stroke-width="2"/>
  <text x="410" y="85" font-family="Arial" font-size="20" font-weight="bold" fill="#F0B90B">交易对配置</text>
  
  <!-- 关闭按钮 -->
  <rect x="900" y="60" width="40" height="40" rx="5" fill="#333333" stroke="#FFFFFF" stroke-width="1"/>
  <text x="915" y="85" font-family="Arial" font-size="20" fill="#FFFFFF">×</text>
  
  <!-- 左侧面板 - 导航 -->
  <rect x="50" y="130" width="300" height="620" rx="10" fill="#232323" stroke="#F0B90B" stroke-width="2"/>
  
  <!-- 导航项 - 基础配置 -->
  <rect x="70" y="150" width="260" height="40" rx="5" fill="#333333" stroke="#F0B90B" stroke-width="1"/>
  <text x="100" y="175" font-family="Arial" font-size="14" fill="#F0B90B">基础配置</text>
  <text x="290" y="175" font-family="Arial" font-size="14" fill="#F0B90B">▼</text>
  
  <!-- 基础配置子项 -->
  <rect x="90" y="200" width="240" height="30" rx="5" fill="#232323" stroke="#FFFFFF" stroke-width="1"/>
  <text x="120" y="220" font-family="Arial" font-size="12" fill="#FFFFFF">链配置</text>
  
  <rect x="90" y="240" width="240" height="30" rx="5" fill="#232323" stroke="#FFFFFF" stroke-width="1"/>
  <text x="120" y="260" font-family="Arial" font-size="12" fill="#FFFFFF">API配置</text>
  
  <rect x="90" y="280" width="240" height="30" rx="5" fill="#232323" stroke="#FFFFFF" stroke-width="1"/>
  <text x="120" y="300" font-family="Arial" font-size="12" fill="#FFFFFF">Token配置</text>
  
  <rect x="90" y="320" width="240" height="30" rx="5" fill="#232323" stroke="#F0B90B" stroke-width="1"/>
  <text x="120" y="340" font-family="Arial" font-size="12" fill="#F0B90B">交易对配置</text>
  
  <!-- 导航项 - Token列表 -->
  <rect x="70" y="370" width="260" height="40" rx="5" fill="#333333" stroke="#F0B90B" stroke-width="1"/>
  <text x="100" y="395" font-family="Arial" font-size="14" fill="#F0B90B">Token列表</text>
  <text x="290" y="395" font-family="Arial" font-size="14" fill="#F0B90B">▼</text>
  
  <!-- Token列表子项 -->
  <rect x="90" y="420" width="240" height="30" rx="5" fill="#232323" stroke="#FFFFFF" stroke-width="1"/>
  <text x="120" y="440" font-family="Arial" font-size="12" fill="#FFFFFF">BTC</text>
  
  <rect x="90" y="460" width="240" height="30" rx="5" fill="#232323" stroke="#FFFFFF" stroke-width="1"/>
  <text x="120" y="480" font-family="Arial" font-size="12" fill="#FFFFFF">ETH</text>
  
  <rect x="90" y="500" width="240" height="30" rx="5" fill="#232323" stroke="#FFFFFF" stroke-width="1"/>
  <text x="120" y="520" font-family="Arial" font-size="12" fill="#FFFFFF">USDT</text>
  
  <rect x="90" y="540" width="240" height="30" rx="5" fill="#232323" stroke="#FFFFFF" stroke-width="1"/>
  <text x="120" y="560" font-family="Arial" font-size="12" fill="#FFFFFF">USDC</text>
  
  <!-- 导航项 - 交易对列表 -->
  <rect x="70" y="590" width="260" height="40" rx="5" fill="#333333" stroke="#F0B90B" stroke-width="1"/>
  <text x="100" y="615" font-family="Arial" font-size="14" fill="#F0B90B">交易对列表</text>
  <text x="290" y="615" font-family="Arial" font-size="14" fill="#F0B90B">▼</text>
  
  <!-- 交易对列表子项 -->
  <rect x="90" y="640" width="240" height="30" rx="5" fill="#232323" stroke="#F0B90B" stroke-width="1"/>
  <text x="120" y="660" font-family="Arial" font-size="12" fill="#F0B90B">ETH/USDT</text>
  
  <rect x="90" y="680" width="240" height="30" rx="5" fill="#232323" stroke="#FFFFFF" stroke-width="1"/>
  <text x="120" y="700" font-family="Arial" font-size="12" fill="#FFFFFF">BTC/USDT</text>
  
  <!-- 右侧配置面板 -->
  <rect x="370" y="130" width="580" height="620" rx="10" fill="#232323" stroke="#F0B90B" stroke-width="2"/>
  <text x="600" y="160" font-family="Arial" font-size="16" font-weight="bold" fill="#F0B90B">交易对配置详情</text>
  
  <!-- 基础信息 -->
  <text x="400" y="200" font-family="Arial" font-size="14" fill="#FFFFFF">交易对名称:</text>
  <text x="490" y="200" font-family="Arial" font-size="14" fill="#FF0000">*</text>
  <rect x="500" y="180" width="420" height="40" rx="5" fill="#333333" stroke="#FFFFFF" stroke-width="1"/>
  <text x="520" y="205" font-family="Arial" font-size="14" fill="#F0B90B">ETH/USDT</text>
  
  <!-- 多链配置 -->
  <text x="400" y="260" font-family="Arial" font-size="16" font-weight="bold" fill="#F0B90B">多链配置</text>
  <text x="500" y="260" font-family="Arial" font-size="14" fill="#FF0000">*</text>
  
  <!-- 添加链按钮 -->
  <rect x="520" y="240" width="96" height="24" rx="5" fill="#333333" stroke="#F0B90B" stroke-width="1"/>
  <text x="552" y="256" font-family="Arial" font-size="11" fill="#FFFFFF">+ 添加链</text>
  
  <!-- 以太坊配置 -->
  <rect x="400" y="280" width="520" height="120" rx="5" fill="#333333" stroke="#FFFFFF" stroke-width="1"/>
  
  <!-- 链选择和生效勾选 -->
  <text x="420" y="305" font-family="Arial" font-size="14" fill="#FFFFFF">链:</text>
  <rect x="450" y="293" width="80" height="24" rx="5" fill="#232323" stroke="#FFFFFF" stroke-width="1"/>
  <text x="460" y="310" font-family="Arial" font-size="11" fill="#FFFFFF">以太坊</text>
  <polygon points="520,305 530,295 530,315" fill="#FFFFFF" />
  
  <!-- 链级别生效勾选 -->
  <rect x="840" y="290" width="30" height="30" rx="5" fill="#333333" stroke="#F0B90B" stroke-width="1"/>
  <text x="855" y="310" font-family="Arial" font-size="14" fill="#F0B90B">✓</text>
  
  <!-- 删除链按钮 -->
  <rect x="880" y="290" width="30" height="30" rx="5" fill="#333333" stroke="#FFFFFF" stroke-width="1"/>
  <text x="890" y="310" font-family="Arial" font-size="14" fill="#FF0000">×</text>
  
  <!-- Token1选择 -->
  <text x="420" y="340" font-family="Arial" font-size="14" fill="#FFFFFF">Token1:</text>
  <rect x="480" y="325" width="350" height="30" rx="5" fill="#232323" stroke="#FFFFFF" stroke-width="1"/>
  <text x="490" y="345" font-family="Arial" font-size="12" fill="#FFFFFF">ETH</text>
  <polygon points="820,340 830,330 830,350" fill="#FFFFFF" />
  
  <!-- Token2选择 -->
  <text x="420" y="385" font-family="Arial" font-size="14" fill="#FFFFFF">Token2:</text>
  <rect x="480" y="370" width="350" height="30" rx="5" fill="#232323" stroke="#FFFFFF" stroke-width="1"/>
  <text x="490" y="390" font-family="Arial" font-size="12" fill="#FFFFFF">USDT</text>
  <polygon points="820,385 830,375 830,395" fill="#FFFFFF" />
  
  <!-- BSC配置 -->
  <rect x="400" y="410" width="520" height="120" rx="5" fill="#333333" stroke="#FFFFFF" stroke-width="1"/>
  
  <!-- 链选择和生效勾选 -->
  <text x="420" y="435" font-family="Arial" font-size="14" fill="#FFFFFF">链:</text>
  <rect x="450" y="423" width="80" height="24" rx="5" fill="#232323" stroke="#FFFFFF" stroke-width="1"/>
  <text x="460" y="440" font-family="Arial" font-size="11" fill="#FFFFFF">BSC</text>
  <polygon points="520,435 530,425 530,445" fill="#FFFFFF" />
  
  <!-- 链级别生效勾选 -->
  <rect x="840" y="420" width="30" height="30" rx="5" fill="#333333" stroke="#F0B90B" stroke-width="1"/>
  <text x="855" y="440" font-family="Arial" font-size="14" fill="#F0B90B">✓</text>
  
  <!-- 删除链按钮 -->
  <rect x="880" y="420" width="30" height="30" rx="5" fill="#333333" stroke="#FFFFFF" stroke-width="1"/>
  <text x="890" y="440" font-family="Arial" font-size="14" fill="#FF0000">×</text>
  
  <!-- Token1选择 -->
  <text x="420" y="470" font-family="Arial" font-size="14" fill="#FFFFFF">Token1:</text>
  <rect x="480" y="455" width="350" height="30" rx="5" fill="#232323" stroke="#FFFFFF" stroke-width="1"/>
  <text x="490" y="475" font-family="Arial" font-size="12" fill="#FFFFFF">ETH</text>
  <polygon points="820,470 830,460 830,480" fill="#FFFFFF" />
  
  <!-- Token2选择 -->
  <text x="420" y="515" font-family="Arial" font-size="14" fill="#FFFFFF">Token2:</text>
  <rect x="480" y="500" width="350" height="30" rx="5" fill="#232323" stroke="#FFFFFF" stroke-width="1"/>
  <text x="490" y="520" font-family="Arial" font-size="12" fill="#FFFFFF">USDT</text>
  <polygon points="820,515 830,505 830,525" fill="#FFFFFF" />
  
  <!-- Solana配置 -->
  <rect x="400" y="540" width="520" height="120" rx="5" fill="#333333" stroke="#FFFFFF" stroke-width="1"/>
  
  <!-- 链选择和生效勾选 -->
  <text x="420" y="565" font-family="Arial" font-size="14" fill="#FFFFFF">链:</text>
  <rect x="450" y="553" width="80" height="24" rx="5" fill="#232323" stroke="#FFFFFF" stroke-width="1"/>
  <text x="460" y="570" font-family="Arial" font-size="11" fill="#FFFFFF">Solana</text>
  <polygon points="520,565 530,555 530,575" fill="#FFFFFF" />
  
  <!-- 链级别生效勾选 -->
  <rect x="840" y="550" width="30" height="30" rx="5" fill="#333333" stroke="#F0B90B" stroke-width="1"/>
  <text x="855" y="570" font-family="Arial" font-size="14" fill="#F0B90B">✓</text>
  
  <!-- 删除链按钮 -->
  <rect x="880" y="550" width="30" height="30" rx="5" fill="#333333" stroke="#FFFFFF" stroke-width="1"/>
  <text x="890" y="570" font-family="Arial" font-size="14" fill="#FF0000">×</text>
  
  <!-- Token1选择 -->
  <text x="420" y="600" font-family="Arial" font-size="14" fill="#FFFFFF">Token1:</text>
  <rect x="480" y="585" width="350" height="30" rx="5" fill="#232323" stroke="#FFFFFF" stroke-width="1"/>
  <text x="490" y="605" font-family="Arial" font-size="12" fill="#FFFFFF">ETH</text>
  <polygon points="820,600 830,590 830,610" fill="#FFFFFF" />
  
  <!-- Token2选择 -->
  <text x="420" y="645" font-family="Arial" font-size="14" fill="#FFFFFF">Token2:</text>
  <rect x="480" y="630" width="350" height="30" rx="5" fill="#232323" stroke="#FFFFFF" stroke-width="1"/>
  <text x="490" y="650" font-family="Arial" font-size="12" fill="#FFFFFF">USDT</text>
  <polygon points="820,645 830,635 830,655" fill="#FFFFFF" />
  
  <!-- 底部按钮 -->
  <!-- 保存按钮 -->
  <rect x="640" y="680" width="100" height="50" rx="5" fill="#333333" stroke="#F0B90B" stroke-width="2"/>
  <text x="670" y="710" font-family="Arial" font-size="14" fill="#FFFFFF">保存</text>
  
  <!-- 删除按钮 -->
  <rect x="760" y="680" width="100" height="50" rx="5" fill="#333333" stroke="#FF6600" stroke-width="2"/>
  <text x="790" y="710" font-family="Arial" font-size="14" fill="#FFFFFF">删除</text>
  
  <!-- 提示信息 -->
  <text x="400" y="670" font-family="Arial" font-size="12" fill="#AAAAAA">* 请先在Token配置中添加Token，然后在此处选择组成交易对</text>
</svg> 