<?xml version="1.0" encoding="UTF-8" standalone="no"?>
<svg width="1200" height="1200" xmlns="http://www.w3.org/2000/svg">
    <!-- 背景 -->
    <rect width="1200" height="1200" fill="#1A1A1A"/>
    
    <!-- 顶部导航栏 -->
    <rect x="0" y="0" width="1200" height="50" fill="#232323" stroke="#444444"/>
    <text x="100" y="32" font-size="18" fill="#F0B90B">策略配置</text>
    <rect x="1000" y="10" width="120" height="30" rx="5" fill="#333333" stroke="#444444"/>
    <text x="1060" y="30" text-anchor="middle" font-size="14" fill="#F0B90B">返回主界面</text>

    <!-- 左侧面板 -->
    <rect x="0" y="50" width="250" height="1150" fill="#232323" stroke="#444444"/>
    
    <!-- 基础配置层列表 -->
    <g transform="translate(0,60)">
        <text x="20" y="20" font-size="16" font-weight="bold" fill="#F0B90B">基础配置</text>
        <g transform="translate(10,30)">
            <!-- 链配置 -->
            <rect x="0" y="0" width="230" height="30" rx="5" fill="#2A2A2A" stroke="#444444"/>
            <text x="20" y="20" font-size="14" fill="#FFFFFF">链配置</text>
            <g transform="translate(10,35)">
                <rect x="0" y="0" width="210" height="20" rx="3" fill="#333333"/>
                <text x="10" y="14" font-size="12" fill="#AAAAAA">• ETH</text>
            </g>
            <g transform="translate(10,60)">
                <rect x="0" y="0" width="210" height="20" rx="3" fill="#333333"/>
                <text x="10" y="14" font-size="12" fill="#AAAAAA">• Solana</text>
            </g>
            <g transform="translate(10,85)">
                <rect x="0" y="0" width="210" height="20" rx="3" fill="#333333"/>
                <text x="10" y="14" font-size="12" fill="#AAAAAA">• BSC</text>
            </g>
        </g>

        <!-- API配置 -->
        <g transform="translate(10,160)">
            <rect x="0" y="0" width="230" height="30" rx="5" fill="#2A2A2A" stroke="#444444"/>
            <text x="20" y="20" font-size="14" fill="#FFFFFF">API配置</text>
            <g transform="translate(10,35)">
                <rect x="0" y="0" width="210" height="20" rx="3" fill="#333333"/>
                <text x="10" y="14" font-size="12" fill="#AAAAAA">• CowSwap</text>
            </g>
            <g transform="translate(10,60)">
                <rect x="0" y="0" width="210" height="20" rx="3" fill="#333333"/>
                <text x="10" y="14" font-size="12" fill="#AAAAAA">• GMGN</text>
            </g>
            <g transform="translate(10,85)">
                <rect x="0" y="0" width="210" height="20" rx="3" fill="#333333"/>
                <text x="10" y="14" font-size="12" fill="#AAAAAA">• sUSDe</text>
            </g>
        </g>

        <!-- Token配置 -->
        <g transform="translate(10,290)">
            <rect x="0" y="0" width="230" height="30" rx="5" fill="#2A2A2A" stroke="#444444"/>
            <text x="20" y="20" font-size="14" fill="#FFFFFF">Token配置</text>
            <g transform="translate(10,35)">
                <rect x="0" y="0" width="210" height="20" rx="3" fill="#333333"/>
                <text x="10" y="14" font-size="12" fill="#AAAAAA">• USDT</text>
            </g>
            <g transform="translate(10,60)">
                <rect x="0" y="0" width="210" height="20" rx="3" fill="#333333"/>
                <text x="10" y="14" font-size="12" fill="#AAAAAA">• USDC</text>
            </g>
            <g transform="translate(10,85)">
                <rect x="0" y="0" width="210" height="20" rx="3" fill="#333333"/>
                <text x="10" y="14" font-size="12" fill="#AAAAAA">• USDe</text>
            </g>
            <g transform="translate(10,110)">
                <rect x="0" y="0" width="210" height="20" rx="3" fill="#333333"/>
                <text x="10" y="14" font-size="12" fill="#AAAAAA">• sUSDe</text>
            </g>
            <g transform="translate(10,135)">
                <rect x="0" y="0" width="210" height="20" rx="3" fill="#333333"/>
                <text x="10" y="14" font-size="12" fill="#AAAAAA">• DAI</text>
            </g>
        </g>

        <!-- 告警配置 -->
        <g transform="translate(10,470)">
            <rect x="0" y="0" width="230" height="30" rx="5" fill="#2A2A2A" stroke="#444444"/>
            <text x="20" y="20" font-size="14" fill="#FFFFFF">告警配置</text>
            <g transform="translate(10,35)">
                <rect x="0" y="0" width="210" height="20" rx="3" fill="#333333"/>
                <text x="10" y="14" font-size="12" fill="#AAAAAA">• 邮件</text>
            </g>
            <g transform="translate(10,60)">
                <rect x="0" y="0" width="210" height="20" rx="3" fill="#333333"/>
                <text x="10" y="14" font-size="12" fill="#AAAAAA">• Telegram</text>
            </g>
        </g>

        <!-- 能力配置 -->
        <g transform="translate(10,590)">
            <text x="10" y="20" font-size="16" font-weight="bold" fill="#F0B90B">能力配置</text>
            <!-- 数据采集能力 -->
            <g transform="translate(0,30)">
                <rect x="0" y="0" width="230" height="30" rx="5" fill="#2A2A2A" stroke="#444444"/>
                <text x="20" y="20" font-size="14" fill="#FFFFFF">数据采集能力</text>
                <g transform="translate(10,35)">
                    <rect x="0" y="0" width="210" height="20" rx="3" fill="#333333"/>
                    <text x="10" y="14" font-size="12" fill="#AAAAAA">• 通用Token采集</text>
                </g>
                <g transform="translate(10,60)">
                    <rect x="0" y="0" width="210" height="20" rx="3" fill="#333333"/>
                    <text x="10" y="14" font-size="12" fill="#AAAAAA">• sUSDe采集</text>
                </g>
            </g>
            <!-- 数据加工能力 -->
            <g transform="translate(0,120)">
                <rect x="0" y="0" width="230" height="30" rx="5" fill="#2A2A2A" stroke="#444444"/>
                <text x="20" y="20" font-size="14" fill="#FFFFFF">数据加工能力</text>
                <g transform="translate(10,35)">
                    <rect x="0" y="0" width="210" height="20" rx="3" fill="#333333"/>
                    <text x="10" y="14" font-size="12" fill="#AAAAAA">• APY</text>
                </g>
            </g>
            <!-- 告警触发能力 -->
            <g transform="translate(0,180)">
                <rect x="0" y="0" width="230" height="30" rx="5" fill="#2A2A2A" stroke="#444444"/>
                <text x="20" y="20" font-size="14" fill="#FFFFFF">告警触发能力</text>
                <g transform="translate(10,35)">
                    <rect x="0" y="0" width="210" height="20" rx="3" fill="#333333"/>
                    <text x="10" y="14" font-size="12" fill="#AAAAAA">• 邮件告警</text>
                </g>
                <g transform="translate(10,60)">
                    <rect x="0" y="0" width="210" height="20" rx="3" fill="#333333"/>
                    <text x="10" y="14" font-size="12" fill="#AAAAAA">• Telegram告警</text>
                </g>
            </g>
        </g>

        <!-- 策略配置 -->
        <g transform="translate(10,850)">
            <text x="10" y="20" font-size="16" font-weight="bold" fill="#F0B90B">策略配置</text>
            <g transform="translate(0,30)">
                <rect x="0" y="0" width="230" height="30" rx="5" fill="#2A2A2A" stroke="#444444"/>
                <text x="20" y="20" font-size="14" fill="#FFFFFF">策略列表</text>
                <g transform="translate(10,35)">
                    <rect x="0" y="0" width="210" height="20" rx="3" fill="#333333"/>
                    <text x="10" y="14" font-size="12" fill="#AAAAAA">• 单链监控</text>
                </g>
                <g transform="translate(10,60)">
                    <rect x="0" y="0" width="210" height="20" rx="3" fill="#333333"/>
                    <text x="10" y="14" font-size="12" fill="#AAAAAA">• 多链监控</text>
                </g>
                <g transform="translate(10,85)">
                    <rect x="0" y="0" width="210" height="20" rx="3" fill="#333333"/>
                    <text x="10" y="14" font-size="12" fill="#AAAAAA">• sUSDe APY监控</text>
                </g>
            </g>
        </g>
    </g>

    <!-- 右侧配置区域 -->
    <rect x="250" y="50" width="950" height="1150" fill="#1D1D1D" stroke="#444444"/>
    
    <!-- 工具栏 -->
    <g transform="translate(270,70)">
        <rect x="0" y="0" width="910" height="50" rx="5" fill="#232323" stroke="#444444"/>
        <!-- 数据采集工具 -->
        <g transform="translate(20,10)">
            <rect x="0" y="0" width="120" height="30" rx="3" fill="#2A2A2A" stroke="#F0B90B"/>
            <text x="60" y="20" text-anchor="middle" font-size="14" fill="#F0B90B">数据采集</text>
        </g>
        <!-- 数据加工工具 -->
        <g transform="translate(160,10)">
            <rect x="0" y="0" width="120" height="30" rx="3" fill="#2A2A2A" stroke="#F0B90B"/>
            <text x="60" y="20" text-anchor="middle" font-size="14" fill="#F0B90B">数据加工</text>
        </g>
        <!-- 告警触发工具 -->
        <g transform="translate(300,10)">
            <rect x="0" y="0" width="120" height="30" rx="3" fill="#2A2A2A" stroke="#F0B90B"/>
            <text x="60" y="20" text-anchor="middle" font-size="14" fill="#F0B90B">告警触发</text>
        </g>
        <!-- 测试按钮 -->
        <g transform="translate(750,10)">
            <rect x="0" y="0" width="120" height="30" rx="3" fill="#F0B90B"/>
            <text x="60" y="20" text-anchor="middle" font-size="14" fill="#000000">测试</text>
        </g>
    </g>

    <!-- 工作区 -->
    <g transform="translate(270,140)">
        <rect x="0" y="0" width="910" height="780" rx="5" fill="#232323" stroke="#444444"/>
        
        <!-- 拖拽提示区域 -->
        <text x="455" y="30" text-anchor="middle" font-size="14" fill="#666666">从左侧拖拽能力到此区域进行配置</text>
        
        <!-- 示例节点：数据采集1 -->
        <g transform="translate(50,50)">
            <rect x="0" y="0" width="200" height="100" rx="5" fill="#2A2A2A" stroke="#F0B90B"/>
            <text x="100" y="30" text-anchor="middle" font-size="14" fill="#FFFFFF">数据采集节点 1</text>
            <line x1="0" y1="45" x2="200" y2="45" stroke="#444444"/>
            <text x="10" y="65" font-size="12" fill="#AAAAAA">• 数据源: sUSDe API</text>
            <text x="10" y="85" font-size="12" fill="#AAAAAA">• 采集字段: price</text>
        </g>

        <!-- 示例节点：数据采集2 -->
        <g transform="translate(50,170)">
            <rect x="0" y="0" width="200" height="100" rx="5" fill="#2A2A2A" stroke="#F0B90B"/>
            <text x="100" y="30" text-anchor="middle" font-size="14" fill="#FFFFFF">数据采集节点 2</text>
            <line x1="0" y1="45" x2="200" y2="45" stroke="#444444"/>
            <text x="10" y="65" font-size="12" fill="#AAAAAA">• 数据源: CowSwap API</text>
            <text x="10" y="85" font-size="12" fill="#AAAAAA">• 采集字段: balance</text>
        </g>

        <!-- 示例节点：数据加工 -->
        <g transform="translate(350,110)">
            <rect x="0" y="0" width="200" height="100" rx="5" fill="#2A2A2A" stroke="#F0B90B"/>
            <text x="100" y="30" text-anchor="middle" font-size="14" fill="#FFFFFF">数据加工节点</text>
            <line x1="0" y1="45" x2="200" y2="45" stroke="#444444"/>
            <text x="10" y="65" font-size="12" fill="#AAAAAA">• 计算类型: APY</text>
            <text x="10" y="85" font-size="12" fill="#AAAAAA">• 输入: price, balance</text>
        </g>

        <!-- 示例节点：告警触发1 -->
        <g transform="translate(650,50)">
            <rect x="0" y="0" width="200" height="100" rx="5" fill="#2A2A2A" stroke="#F0B90B"/>
            <text x="100" y="30" text-anchor="middle" font-size="14" fill="#FFFFFF">告警触发节点 1</text>
            <line x1="0" y1="45" x2="200" y2="45" stroke="#444444"/>
            <text x="10" y="65" font-size="12" fill="#AAAAAA">• 触发条件: APY > 30%</text>
            <text x="10" y="85" font-size="12" fill="#AAAAAA">• 通知方式: 邮件</text>
        </g>

        <!-- 示例节点：告警触发2 -->
        <g transform="translate(650,170)">
            <rect x="0" y="0" width="200" height="100" rx="5" fill="#2A2A2A" stroke="#F0B90B"/>
            <text x="100" y="30" text-anchor="middle" font-size="14" fill="#FFFFFF">告警触发节点 2</text>
            <line x1="0" y1="45" x2="200" y2="45" stroke="#444444"/>
            <text x="10" y="65" font-size="12" fill="#AAAAAA">• 触发条件: APY > 50%</text>
            <text x="10" y="85" font-size="12" fill="#AAAAAA">• 通知方式: Telegram</text>
        </g>

        <!-- 连接线 -->
        <g stroke="#F0B90B" stroke-width="2">
            <!-- 数据采集1到数据加工 -->
            <path d="M250,100 C300,100 300,160 350,160" fill="none" marker-end="url(#arrow)"/>
            <!-- 数据采集2到数据加工 -->
            <path d="M250,220 C300,220 300,160 350,160" fill="none" marker-end="url(#arrow)"/>
            <!-- 数据加工到告警触发1 -->
            <path d="M550,160 C600,160 600,100 650,100" fill="none" marker-end="url(#arrow)"/>
            <!-- 数据加工到告警触发2 -->
            <path d="M550,160 C600,160 600,220 650,220" fill="none" marker-end="url(#arrow)"/>
        </g>

        <!-- 拖拽操作提示 -->
        <g transform="translate(50,300)">
            <rect x="0" y="0" width="810" height="30" rx="5" fill="#2A2A2A" stroke="#444444"/>
            <text x="405" y="20" text-anchor="middle" font-size="12" fill="#666666">
                提示：1. 拖拽左侧能力到工作区添加节点  2. 点击节点之间连线建立关系  3. 双击节点编辑配置  4. 右键节点删除
            </text>
        </g>
    </g>

    <!-- 测试结果区域改为日志形式 -->
    <g transform="translate(270,940)">
        <rect x="0" y="0" width="910" height="180" rx="5" fill="#232323" stroke="#444444"/>
        <text x="20" y="30" font-size="16" fill="#F0B90B">测试日志</text>
        
        <!-- 日志内容区域 -->
        <g transform="translate(20,45)">
            <!-- 时间戳和日志条目 -->
            <text x="0" y="0" font-size="12" fill="#666666">[2024-03-21 14:30:22]</text>
            <text x="150" y="0" font-size="12" fill="#00FF00">数据采集能力(通用Token采集) 测试通过</text>
            
            <text x="0" y="20" font-size="12" fill="#666666">[2024-03-21 14:30:23]</text>
            <text x="150" y="20" font-size="12" fill="#00FF00">数据采集能力(sUSDe采集) 测试通过</text>
            
            <text x="0" y="40" font-size="12" fill="#666666">[2024-03-21 14:30:24]</text>
            <text x="150" y="40" font-size="12" fill="#FF0000">数据加工能力(APY计算) 测试失败: 输入数据格式错误</text>
            
            <text x="0" y="60" font-size="12" fill="#666666">[2024-03-21 14:30:25]</text>
            <text x="150" y="60" font-size="12" fill="#00FF00">告警触发能力(邮件) 测试通过</text>
            
            <text x="0" y="80" font-size="12" fill="#666666">[2024-03-21 14:30:26]</text>
            <text x="150" y="80" font-size="12" fill="#00FF00">告警触发能力(Telegram) 测试通过</text>
            
            <text x="0" y="100" font-size="12" fill="#666666">[2024-03-21 14:30:27]</text>
            <text x="150" y="100" font-size="12" fill="#FF0000">策略执行失败: 数据加工能力异常</text>
        </g>
    </g>

    <!-- 底部按钮区域移到最下方 -->
    <g transform="translate(270,1140)">
        <rect x="0" y="0" width="910" height="50" rx="5" fill="#232323" stroke="#444444"/>
        <rect x="700" y="10" width="80" height="30" rx="3" fill="#2A2A2A" stroke="#F0B90B"/>
        <text x="740" y="30" text-anchor="middle" font-size="14" fill="#F0B90B">删除</text>
        <rect x="800" y="10" width="80" height="30" rx="3" fill="#F0B90B"/>
        <text x="840" y="30" text-anchor="middle" font-size="14" fill="#000000">保存</text>
    </g>

    <!-- 箭头标记定义 -->
    <defs>
        <marker id="arrow" viewBox="0 0 10 10" refX="9" refY="5"
            markerWidth="6" markerHeight="6" orient="auto">
            <path d="M 0 0 L 10 5 L 0 10 z" fill="#F0B90B"/>
        </marker>
    </defs>
</svg> 