<?xml version="1.0" encoding="UTF-8" standalone="no"?>
<svg width="1000" height="800" xmlns="http://www.w3.org/2000/svg">
  <!-- 背景 -->
  <rect width="1000" height="800" fill="#1A1A1A"/>
  
  <!-- 标题栏 -->
  <rect x="50" y="50" width="900" height="60" rx="10" fill="#232323" stroke="#F0B90B" stroke-width="2"/>
  <text x="450" y="85" font-family="Arial" font-size="20" font-weight="bold" fill="#F0B90B">链配置</text>
  
  <!-- 关闭按钮 -->
  <rect x="900" y="60" width="40" height="40" rx="5" fill="#333333" stroke="#FFFFFF" stroke-width="1"/>
  <text x="915" y="85" font-family="Arial" font-size="20" fill="#FFFFFF">×</text>
  
  <!-- 左侧面板 - 链列表 -->
  <rect x="50" y="130" width="300" height="620" rx="10" fill="#232323" stroke="#F0B90B" stroke-width="2"/>
  <text x="170" y="160" font-family="Arial" font-size="16" font-weight="bold" fill="#F0B90B">链列表</text>
  
  <!-- 添加链按钮 -->
  <rect x="70" y="180" width="260" height="40" rx="5" fill="#333333" stroke="#F0B90B" stroke-width="1"/>
  <text x="170" y="205" font-family="Arial" font-size="14" fill="#FFFFFF">+ 添加链</text>
  
  <!-- 链列表项 -->
  <rect x="70" y="240" width="260" height="50" rx="5" fill="#333333" stroke="#FFFFFF" stroke-width="1"/>
  <text x="100" y="270" font-family="Arial" font-size="14" fill="#FFFFFF">Ethereum</text>
  <circle cx="270" cy="265" r="8" fill="#00FF00"/>
  <rect x="290" y="255" width="20" height="20" rx="3" fill="#333333" stroke="#FFFFFF" stroke-width="1"/>
  <text x="295" y="270" font-family="Arial" font-size="14" fill="#FFFFFF">✎</text>
  
  <rect x="70" y="300" width="260" height="50" rx="5" fill="#333333" stroke="#FFFFFF" stroke-width="1"/>
  <text x="100" y="330" font-family="Arial" font-size="14" fill="#FFFFFF">BSC</text>
  <circle cx="270" cy="325" r="8" fill="#00FF00"/>
  <rect x="290" y="315" width="20" height="20" rx="3" fill="#333333" stroke="#FFFFFF" stroke-width="1"/>
  <text x="295" y="330" font-family="Arial" font-size="14" fill="#FFFFFF">✎</text>
  
  <rect x="70" y="360" width="260" height="50" rx="5" fill="#333333" stroke="#FFFFFF" stroke-width="1"/>
  <text x="100" y="390" font-family="Arial" font-size="14" fill="#FFFFFF">Base</text>
  <circle cx="270" cy="385" r="8" fill="#FFAA00"/>
  <rect x="290" y="375" width="20" height="20" rx="3" fill="#333333" stroke="#FFFFFF" stroke-width="1"/>
  <text x="295" y="390" font-family="Arial" font-size="14" fill="#FFFFFF">✎</text>
  
  <rect x="70" y="420" width="260" height="50" rx="5" fill="#333333" stroke="#FFFFFF" stroke-width="1"/>
  <text x="100" y="450" font-family="Arial" font-size="14" fill="#FFFFFF">Solana</text>
  <circle cx="270" cy="445" r="8" fill="#00FF00"/>
  <rect x="290" y="435" width="20" height="20" rx="3" fill="#333333" stroke="#FFFFFF" stroke-width="1"/>
  <text x="295" y="450" font-family="Arial" font-size="14" fill="#FFFFFF">✎</text>
  
  <!-- 右侧配置面板 -->
  <rect x="370" y="130" width="580" height="620" rx="10" fill="#232323" stroke="#F0B90B" stroke-width="2"/>
  <text x="600" y="160" font-family="Arial" font-size="16" font-weight="bold" fill="#F0B90B">链配置详情</text>
  
  <!-- 链名称 -->
  <text x="400" y="200" font-family="Arial" font-size="14" fill="#FFFFFF">链名称:</text>
  <text x="440" y="200" font-family="Arial" font-size="14" fill="#FF0000">*</text>
  <rect x="520" y="180" width="400" height="40" rx="5" fill="#333333" stroke="#FFFFFF" stroke-width="1"/>
  <text x="530" y="205" font-family="Arial" font-size="14" fill="#F0B90B">Ethereum</text>
  
  <!-- 链ID -->
  <text x="400" y="260" font-family="Arial" font-size="14" fill="#FFFFFF">链ID:</text>
  <text x="440" y="260" font-family="Arial" font-size="14" fill="#FF0000">*</text>
  <rect x="520" y="240" width="400" height="40" rx="5" fill="#333333" stroke="#FFFFFF" stroke-width="1"/>
  <text x="530" y="265" font-family="Arial" font-size="14" fill="#FFFFFF">1</text>
  
  <!-- RPC地址列表 -->
  <text x="400" y="320" font-family="Arial" font-size="14" fill="#FFFFFF">RPC地址列表:</text>
  <text x="500" y="320" font-family="Arial" font-size="14" fill="#FF0000">*</text>
  
  <!-- 添加RPC地址按钮（改为+号按钮，放在标签旁边） -->
  <rect x="510" y="310" width="30" height="30" rx="5" fill="#333333" stroke="#F0B90B" stroke-width="1"/>
  <text x="525" y="330" font-family="Arial" font-size="16" font-weight="bold" fill="#FFFFFF">+</text>
  
  <!-- RPC地址1 -->
  <rect x="400" y="340" width="500" height="40" rx="5" fill="#333333" stroke="#FFFFFF" stroke-width="1"/>
  <text x="410" y="365" font-family="Arial" font-size="14" fill="#FFFFFF">https://eth-mainnet.g.alchemy.com/v2/your-api-key</text>
  <rect x="910" y="340" width="40" height="40" rx="5" fill="#333333" stroke="#FFFFFF" stroke-width="1"/>
  <text x="925" y="365" font-family="Arial" font-size="14" fill="#FF0000">×</text>
  
  <!-- RPC地址2 -->
  <rect x="400" y="390" width="500" height="40" rx="5" fill="#333333" stroke="#FFFFFF" stroke-width="1"/>
  <text x="410" y="415" font-family="Arial" font-size="14" fill="#FFFFFF">https://mainnet.infura.io/v3/your-api-key</text>
  <rect x="910" y="390" width="40" height="40" rx="5" fill="#333333" stroke="#FFFFFF" stroke-width="1"/>
  <text x="925" y="415" font-family="Arial" font-size="14" fill="#FF0000">×</text>
  
  <!-- 测试连接按钮 (缩小) -->
  <rect x="400" y="450" width="200" height="40" rx="5" fill="#333333" stroke="#F0B90B" stroke-width="2"/>
  <text x="470" y="475" font-family="Arial" font-size="14" fill="#FFFFFF">测试连接</text>
  
  <!-- 测试结果 -->
  <rect x="400" y="500" width="550" height="80" rx="5" fill="#232323" stroke="#AAAAAA" stroke-width="1"/>
  <text x="420" y="525" font-family="Arial" font-size="14" fill="#00FF00">✓ 连接成功</text>
  <text x="420" y="555" font-family="Arial" font-size="14" fill="#FFAA00">⚠ eth_blockNumber: 延迟 250ms</text>
  
  <!-- 底部按钮 - 统一字体颜色为白色，保留颜色只用于边框 -->
  <rect x="700" y="600" width="100" height="50" rx="5" fill="#333333" stroke="#F0B90B" stroke-width="2"/>
  <text x="730" y="630" font-family="Arial" font-size="14" fill="#FFFFFF">保存</text>
  
  <rect x="820" y="600" width="100" height="50" rx="5" fill="#333333" stroke="#FF6600" stroke-width="2"/>
  <text x="850" y="630" font-family="Arial" font-size="14" fill="#FFFFFF">取消</text>
  
  <!-- 删除按钮已移除 -->
</svg> 