<?xml version="1.0" encoding="UTF-8" standalone="no"?>
<svg width="100%" height="100%" viewBox="0 0 1920 1200" preserveAspectRatio="xMidYMid meet" xmlns="http://www.w3.org/2000/svg">
  <!-- 背景 -->
  <rect width="1920" height="1200" fill="#1A1A1A"/>
  
  <!-- 顶部导航栏 -->
  <rect x="0" y="0" width="1920" height="60" fill="#232323" stroke="#444444" stroke-width="1"/>
  <text x="20" y="38" font-family="Arial" font-size="24" font-weight="bold" fill="#F0B90B">策略配置</text>
  
  <!-- 返回按钮 -->
  <rect x="1750" y="15" width="150" height="30" rx="5" fill="#333333" stroke="#444444" stroke-width="1"/>
  <text x="1825" y="35" font-family="Arial" font-size="14" fill="#FFFFFF" text-anchor="middle">返回主界面</text>
  
  <!-- 左侧策略类型选择 -->
  <rect x="20" y="80" width="280" height="1100" fill="#232323" stroke="#444444" stroke-width="1"/>
  <text x="160" y="110" font-family="Arial" font-size="18" font-weight="bold" fill="#FFFFFF" text-anchor="middle">策略类型</text>
  
  <!-- 策略类型列表 -->
  <rect x="40" y="130" width="240" height="60" rx="5" fill="#333333" stroke="#F0B90B" stroke-width="2"/>
  <text x="160" y="170" font-family="Arial" font-size="16" fill="#FFFFFF" text-anchor="middle">价格监控</text>
  
  <rect x="40" y="200" width="240" height="60" rx="5" fill="#333333"/>
  <text x="160" y="240" font-family="Arial" font-size="16" fill="#FFFFFF" text-anchor="middle">多链监控</text>
  
  <rect x="40" y="270" width="240" height="60" rx="5" fill="#333333"/>
  <text x="160" y="310" font-family="Arial" font-size="16" fill="#FFFFFF" text-anchor="middle">多环节复杂套利</text>
  
  <text x="40" y="380" font-family="Arial" font-size="16" font-weight="bold" fill="#FFFFFF">预设模板</text>
  
  <rect x="40" y="400" width="240" height="40" rx="5" fill="#2A2A2A"/>
  <text x="160" y="425" font-family="Arial" font-size="14" fill="#AAAAAA" text-anchor="middle">ETH价格监控</text>
  
  <rect x="40" y="450" width="240" height="40" rx="5" fill="#2A2A2A"/>
  <text x="160" y="475" font-family="Arial" font-size="14" fill="#AAAAAA" text-anchor="middle">ETH-BSC价差套利</text>
  
  <rect x="40" y="500" width="240" height="40" rx="5" fill="#2A2A2A"/>
  <text x="160" y="525" font-family="Arial" font-size="14" fill="#AAAAAA" text-anchor="middle">sUSDe套利流程</text>
  
  <!-- 工作流设计区域 -->
  <rect x="320" y="80" width="1580" height="1020" fill="#232323" stroke="#444444" stroke-width="1"/>
  <text x="350" y="110" font-family="Arial" font-size="18" font-weight="bold" fill="#FFFFFF">工作流配置</text>
  
  <!-- 保存和测试按钮 -->
  <rect x="1650" y="90" width="100" height="30" rx="5" fill="#F0B90B"/>
  <text x="1700" y="110" font-family="Arial" font-size="14" fill="#000000" text-anchor="middle">保存</text>
  
  <rect x="1540" y="90" width="100" height="30" rx="5" fill="#444444"/>
  <text x="1590" y="110" font-family="Arial" font-size="14" fill="#FFFFFF" text-anchor="middle">测试</text>
  
  <!-- 策略名称 -->
  <text x="240" y="180" font-family="Arial" font-size="14" fill="#FFFFFF">策略名称:</text>
  <text x="320" y="180" font-family="Arial" font-size="14" fill="#FF0000">*</text>
  <rect x="330" y="160" width="400" height="30" rx="5" fill="#333333"/>
  <text x="340" y="180" font-family="Arial" font-size="14" fill="#FFFFFF">ETH价格监控策略</text>
  
  <!-- 策略描述 -->
  <text x="780" y="150" font-family="Arial" font-size="16" fill="#FFFFFF">描述:</text>
  <rect x="840" y="130" width="600" height="30" rx="3" fill="#333333" stroke="#444444" stroke-width="1"/>
  <text x="850" y="150" font-family="Arial" font-size="14" fill="#AAAAAA">监控ETH价格，低于设定值发送告警</text>
  
  <!-- 工作流编辑区 - 采用模块化设计 -->
  <rect x="350" y="170" width="1520" height="900" fill="#1D1D1D" stroke="#333333" stroke-width="1"/>
  
  <!-- 模块选择工具栏 -->
  <rect x="350" y="170" width="1520" height="50" fill="#2A2A2A"/>
  <text x="380" y="200" font-family="Arial" font-size="14" fill="#FFFFFF">添加模块:</text>
  
  <!-- 数据操作模块 -->
  <rect x="480" y="180" width="120" height="30" rx="15" fill="#333333" stroke="#0088FF" stroke-width="1"/>
  <text x="540" y="200" font-family="Arial" font-size="14" fill="#0088FF" text-anchor="middle">数据采集</text>
  
  <rect x="610" y="180" width="120" height="30" rx="15" fill="#333333" stroke="#00AA00" stroke-width="1"/>
  <text x="670" y="200" font-family="Arial" font-size="14" fill="#00AA00" text-anchor="middle">数据处理</text>
  
  <!-- 控制流模块 -->
  <rect x="740" y="180" width="120" height="30" rx="15" fill="#333333" stroke="#FF6600" stroke-width="1"/>
  <text x="800" y="200" font-family="Arial" font-size="14" fill="#FF6600" text-anchor="middle">条件判断</text>
  
  <rect x="870" y="180" width="120" height="30" rx="15" fill="#333333" stroke="#F0B90B" stroke-width="1"/>
  <text x="930" y="200" font-family="Arial" font-size="14" fill="#F0B90B" text-anchor="middle">循环操作</text>
  
  <!-- 动作模块 -->
  <rect x="1000" y="180" width="120" height="30" rx="15" fill="#333333" stroke="#FF0000" stroke-width="1"/>
  <text x="1060" y="200" font-family="Arial" font-size="14" fill="#FF0000" text-anchor="middle">告警通知</text>
  
  <rect x="1130" y="180" width="120" height="30" rx="15" fill="#333333" stroke="#AA00AA" stroke-width="1"/>
  <text x="1190" y="200" font-family="Arial" font-size="14" fill="#AA00AA" text-anchor="middle">执行操作</text>
  
  <!-- 配置模块 -->  
  <rect x="1260" y="180" width="120" height="30" rx="15" fill="#333333" stroke="#AAAAAA" stroke-width="1"/>
  <text x="1320" y="200" font-family="Arial" font-size="14" fill="#AAAAAA" text-anchor="middle">变量定义</text>
  
  <rect x="1390" y="180" width="120" height="30" rx="15" fill="#333333" stroke="#FFFFFF" stroke-width="1"/>
  <text x="1450" y="200" font-family="Arial" font-size="14" fill="#FFFFFF" text-anchor="middle">计算公式</text>
  
  <!-- 工作流设计区 -->
  <rect x="350" y="220" width="1520" height="850" fill="#1D1D1D"/>
  
  <!-- 工作流模式说明 -->
  <text x="1700" y="250" font-family="Arial" font-size="14" fill="#AAAAAA" text-anchor="end">当前模式: 价格监控流程</text>
  
  <!-- 工作流模块组 - 单链价格监控示例 -->
  
  <!-- 起始节点 -->
  <circle cx="600" cy="280" r="20" fill="#333333" stroke="#FFFFFF" stroke-width="2"/>
  <text x="600" y="285" font-family="Arial" font-size="14" fill="#FFFFFF" text-anchor="middle">开始</text>
  
  <!-- 节点连接线 -->
  <line x1="600" y1="300" x2="600" y2="330" stroke="#FFFFFF" stroke-width="2" stroke-dasharray="5,5"/>
  <polygon points="600,330 595,320 605,320" fill="#FFFFFF"/>
  
  <!-- 数据采集模块 -->
  <rect x="400" y="330" width="400" height="180" rx="5" fill="#232323" stroke="#0088FF" stroke-width="2"/>
  <rect x="400" y="330" width="400" height="40" rx="5" fill="#1A1A1A"/>
  <text x="420" y="355" font-family="Arial" font-size="16" font-weight="bold" fill="#0088FF">1. 数据采集</text>
  <circle cx="780" cy="350" r="15" fill="#333333" stroke="#444444" stroke-width="1"/>
  <text x="780" y="355" font-family="Arial" font-size="16" fill="#FFFFFF" text-anchor="middle">⋮</text>
  
  <text x="420" y="390" font-family="Arial" font-size="14" fill="#FFFFFF">采集类型:</text>  
  <rect x="500" y="370" width="150" height="30" rx="3" fill="#333333"/>
  <text x="575" y="390" font-family="Arial" font-size="14" fill="#FFFFFF" text-anchor="middle">单链价格</text>
  <polygon points="640,385 650,375 650,395" fill="#FFFFFF" />
  
  <text x="420" y="430" font-family="Arial" font-size="14" fill="#FFFFFF">链选择:</text>
  <rect x="500" y="410" width="150" height="30" rx="3" fill="#333333"/>
  <text x="575" y="430" font-family="Arial" font-size="14" fill="#FFFFFF" text-anchor="middle">以太坊</text>
  <polygon points="640,425 650,415 650,435" fill="#FFFFFF" />
  
  <text x="420" y="470" font-family="Arial" font-size="14" fill="#FFFFFF">数据源:</text>
  <text x="480" y="490" font-family="Arial" font-size="14" fill="#FF0000">*</text>
  <rect x="520" y="470" width="260" height="30" rx="3" fill="#333333"/>
  <text x="530" y="490" font-family="Arial" font-size="14" fill="#FFFFFF">Binance API</text>
  
  <text x="420" y="530" font-family="Arial" font-size="14" fill="#FFFFFF">API链接:</text>
  <text x="480" y="530" font-family="Arial" font-size="14" fill="#FF0000">*</text>
  <rect x="520" y="510" width="260" height="30" rx="3" fill="#333333"/>
  <text x="530" y="530" font-family="Arial" font-size="14" fill="#FFFFFF">https://api.binance.com/api/v3/ticker/price?symbol=ETHUSDT</text>
  
  <text x="420" y="570" font-family="Arial" font-size="14" fill="#FFFFFF">输出参数:</text>
  <text x="490" y="570" font-family="Arial" font-size="14" fill="#FF0000">*</text>
  <rect x="520" y="550" width="260" height="30" rx="3" fill="#333333"/>
  <text x="530" y="570" font-family="Arial" font-size="14" fill="#FFFFFF">price_eth = response.price</text>
  
  <!-- 输出参数区 -->
  <rect x="400" y="510" width="400" height="40" rx="5" fill="#1A1A1A" stroke="#0088FF" stroke-width="1" stroke-dasharray="5,5"/>
  <text x="420" y="535" font-family="Arial" font-size="14" fill="#0088FF">输出: ETH价格 (price_eth)</text>
  
  <!-- 节点连接线 -->
  <line x1="600" y1="550" x2="600" y2="580" stroke="#FFFFFF" stroke-width="2" stroke-dasharray="5,5"/>
  <polygon points="600,580 595,570 605,570" fill="#FFFFFF"/>
  
  <!-- 条件判断模块 -->
  <rect x="400" y="580" width="400" height="160" rx="5" fill="#232323" stroke="#FF6600" stroke-width="2"/>
  <rect x="400" y="580" width="400" height="40" rx="5" fill="#1A1A1A"/>
  <text x="420" y="605" font-family="Arial" font-size="16" font-weight="bold" fill="#FF6600">2. 条件判断</text>
  <circle cx="780" cy="600" r="15" fill="#333333" stroke="#444444" stroke-width="1"/>
  <text x="780" y="605" font-family="Arial" font-size="16" fill="#FFFFFF" text-anchor="middle">⋮</text>
  
  <text x="420" y="640" font-family="Arial" font-size="14" fill="#FFFFFF">条件类型:</text>
  <rect x="520" y="620" width="150" height="30" rx="3" fill="#333333"/>
  <text x="595" y="640" font-family="Arial" font-size="14" fill="#FFFFFF" text-anchor="middle">小于</text>
  <polygon points="660,635 670,625 670,645" fill="#FFFFFF" />
  
  <text x="420" y="680" font-family="Arial" font-size="14" fill="#FFFFFF">阈值:</text>
  <text x="460" y="680" font-family="Arial" font-size="14" fill="#FF0000">*</text>
  <rect x="520" y="660" width="100" height="30" rx="3" fill="#333333"/>
  <text x="530" y="680" font-family="Arial" font-size="14" fill="#FFFFFF">3000</text>
  <text x="630" y="680" font-family="Arial" font-size="14" fill="#AAAAAA">USD</text>
  
  <!-- 输入参数区 -->
  <rect x="400" y="700" width="400" height="30" rx="5" fill="#1A1A1A" stroke="#FF6600" stroke-width="1" stroke-dasharray="5,5"/>
  <text x="420" y="720" font-family="Arial" font-size="14" fill="#FF6600">输入: price_eth (来自步骤1)</text>
  
  <!-- 节点连接线 - 条件成立 -->
  <line x1="600" y1="740" x2="600" y2="770" stroke="#FFFFFF" stroke-width="2" stroke-dasharray="5,5"/>
  <polygon points="600,770 595,760 605,760" fill="#FFFFFF"/>
  <text x="620" y="755" font-family="Arial" font-size="12" fill="#AAAAAA">条件成立</text>
  
  <!-- 告警通知模块 -->
  <rect x="400" y="770" width="400" height="130" rx="5" fill="#232323" stroke="#FF0000" stroke-width="2"/>
  <rect x="400" y="770" width="400" height="40" rx="5" fill="#1A1A1A"/>
  <text x="420" y="795" font-family="Arial" font-size="16" font-weight="bold" fill="#FF0000">3. 告警通知</text>
  <circle cx="780" cy="790" r="15" fill="#333333" stroke="#444444" stroke-width="1"/>
  <text x="780" y="795" font-family="Arial" font-size="16" fill="#FFFFFF" text-anchor="middle">⋮</text>
  
  <text x="420" y="830" font-family="Arial" font-size="14" fill="#FFFFFF">通知方式:</text>
  <text x="490" y="830" font-family="Arial" font-size="14" fill="#FF0000">*</text>
  <rect x="520" y="815" width="20" height="20" rx="3" fill="#1A1A1A" stroke="#FFFFFF" stroke-width="1"/>
  <text x="526" y="830" font-family="Arial" font-size="14" fill="#FFFFFF">✓</text>
  <text x="550" y="830" font-family="Arial" font-size="14" fill="#FFFFFF">邮件</text>
  
  <text x="420" y="870" font-family="Arial" font-size="14" fill="#FFFFFF">消息模板:</text>
  <text x="490" y="870" font-family="Arial" font-size="14" fill="#FF0000">*</text>
  <rect x="520" y="850" width="260" height="30" rx="3" fill="#333333"/>
  <text x="530" y="870" font-family="Arial" font-size="14" fill="#AAAAAA">ETH价格低于$3000，当前: {{price_eth}}</text>
  
  <!-- 输入参数区 -->
  <rect x="400" y="890" width="400" height="30" rx="5" fill="#1A1A1A" stroke="#FF0000" stroke-width="1" stroke-dasharray="5,5"/>
  <text x="420" y="910" font-family="Arial" font-size="14" fill="#FF0000">输入: price_eth (来自步骤1)</text>
  
  <!-- 节点连接线 -->
  <line x1="600" y1="900" x2="600" y2="930" stroke="#FFFFFF" stroke-width="2" stroke-dasharray="5,5"/>
  <polygon points="600,930 595,920 605,920" fill="#FFFFFF"/>
  
  <!-- 结束节点 -->
  <circle cx="600" cy="950" r="20" fill="#333333" stroke="#FFFFFF" stroke-width="2"/>
  <text x="600" y="955" font-family="Arial" font-size="14" fill="#FFFFFF" text-anchor="middle">结束</text>
  
  <!-- 条件不成立分支 -->
  <line x1="800" y1="660" x2="880" y2="660" stroke="#FFFFFF" stroke-width="2" stroke-dasharray="5,5"/>
  <line x1="880" y1="660" x2="880" y2="950" stroke="#FFFFFF" stroke-width="2" stroke-dasharray="5,5"/>
  <line x1="880" y1="950" x2="620" y2="950" stroke="#FFFFFF" stroke-width="2" stroke-dasharray="5,5"/>
  <polygon points="620,950 630,945 630,955" fill="#FFFFFF"/>
  <text x="830" y="640" font-family="Arial" font-size="12" fill="#AAAAAA">条件不成立</text>
  
  <!-- 多链监控示例 - 折叠状态 -->
  <rect x="950" y="330" width="400" height="80" rx="5" fill="#232323" stroke="#555555" stroke-width="2" opacity="0.6"/>
  <rect x="950" y="330" width="400" height="40" rx="5" fill="#1A1A1A"/>
  <text x="970" y="355" font-family="Arial" font-size="16" font-weight="bold" fill="#AAAAAA">多链监控示例 (点击展开)</text>
  <circle cx="1330" cy="350" r="15" fill="#333333" stroke="#444444" stroke-width="1"/>
  <text x="1330" y="355" font-family="Arial" font-size="16" fill="#FFFFFF" text-anchor="middle">+</text>
  
  <text x="970" y="390" font-family="Arial" font-size="14" fill="#AAAAAA">同时监控ETH在多链上的价格，发现套利机会</text>
  
  <!-- 多环节套利示例 - 折叠状态 -->
  <rect x="950" y="430" width="400" height="80" rx="5" fill="#232323" stroke="#555555" stroke-width="2" opacity="0.6"/>
  <rect x="950" y="430" width="400" height="40" rx="5" fill="#1A1A1A"/>
  <text x="970" y="455" font-family="Arial" font-size="16" font-weight="bold" fill="#AAAAAA">多环节套利示例 (点击展开)</text>
  <circle cx="1330" cy="450" r="15" fill="#333333" stroke="#444444" stroke-width="1"/>
  <text x="1330" y="455" font-family="Arial" font-size="16" fill="#FFFFFF" text-anchor="middle">+</text>
  
  <text x="970" y="490" font-family="Arial" font-size="14" fill="#AAAAAA">sUSDe多步骤套利流程，包含unstake等操作</text>
  
  <!-- 工作流设计帮助区域 -->
  <rect x="950" y="530" width="400" height="370" rx="5" fill="#232323" stroke="#555555" stroke-width="2"/>
  <rect x="950" y="530" width="400" height="40" rx="5" fill="#1A1A1A"/>
  <text x="970" y="555" font-family="Arial" font-size="16" font-weight="bold" fill="#FFFFFF">工作流设计指南</text>
  
  <rect x="960" y="580" width="380" height="100" rx="5" fill="#1D1D1D"/>
  <text x="970" y="600" font-family="Arial" font-size="14" fill="#FFFFFF">变量传递示例:</text>
  <text x="970" y="625" font-family="Arial" font-size="14" fill="#AAAAAA">• 步骤1定义输出变量: price_eth</text>
  <text x="970" y="650" font-family="Arial" font-size="14" fill="#AAAAAA">• 步骤2引用输入变量: price_eth</text>
  <text x="970" y="675" font-family="Arial" font-size="14" fill="#AAAAAA">• 变量可在多个步骤间传递和使用</text>
  
  <rect x="960" y="690" width="380" height="100" rx="5" fill="#1D1D1D"/>
  <text x="970" y="710" font-family="Arial" font-size="14" fill="#FFFFFF">操作提示:</text>
  <text x="970" y="735" font-family="Arial" font-size="14" fill="#AAAAAA">• 拖拽模块到工作区添加步骤</text>
  <text x="970" y="760" font-family="Arial" font-size="14" fill="#AAAAAA">• 点击连接点创建流程路径</text>
  <text x="970" y="785" font-family="Arial" font-size="14" fill="#AAAAAA">• 右键节点可编辑或删除</text>
  
  <rect x="960" y="800" width="380" height="90" rx="5" fill="#1D1D1D"/>
  <text x="970" y="820" font-family="Arial" font-size="14" fill="#FFFFFF">数据类型支持:</text>
  <text x="970" y="845" font-family="Arial" font-size="14" fill="#AAAAAA">• 数值型: 价格、数量、阈值等</text>
  <text x="970" y="870" font-family="Arial" font-size="14" fill="#AAAAAA">• 对象型: API返回的JSON数据</text>
  
  <!-- 底部状态栏 -->
  <rect x="0" y="1160" width="1920" height="40" fill="#232323" stroke="#444444" stroke-width="1"/>
  <text x="20" y="1185" font-family="Arial" font-size="14" fill="#AAAAAA">提示: 工作流模式支持模块间的数据传递，每个步骤可引用前序步骤的输出变量</text>
  <text x="1900" y="1185" font-family="Arial" font-size="14" fill="#AAAAAA" text-anchor="end">版本: 1.0</text>
</svg> 